  0
SECTION
  2
HEADER
  9
$ACADVER
  1
AC1024
  9
$ACADMAINTVER
 70
     6
  9
$DWGCODEPAGE
  3
ANSI_1252
  9
$INSBASE
 10
0.0
 20
0.0
 30
0.0
  9
$EXTMIN
 10
1.000000000000000E+20
 20
1.000000000000000E+20
 30
1.000000000000000E+20
  9
$EXTMAX
 10
-1.000000000000000E+20
 20
-1.000000000000000E+20
 30
-1.000000000000000E+20
  9
$LIMMIN
 10
0.0
 20
0.0
  9
$LIMMAX
 10
12.0
 20
9.0
  9
$ORTHOMODE
 70
     0
  9
$REGENMODE
 70
     1
  9
$FILLMODE
 70
     1
  9
$QTEXTMODE
 70
     0
  9
$MIRRTEXT
 70
     1
  9
$LTSCALE
 40
1.0
  9
$ATTMODE
 70
     1
  9
$TEXTSIZE
 40
0.2
  9
$TRACEWID
 40
0.05
  9
$TEXTSTYLE
  7
Standard
  9
$CLAYER
  8
0
  9
$CELTYPE
  6
ByLayer
  9
$CECOLOR
 62
   256
  9
$CELTSCALE
 40
1.0
  9
$DISPSILH
 70
     0
  9
$DIMSCALE
 40
1.0
  9
$DIMASZ
 40
0.18
  9
$DIMEXO
 40
0.0625
  9
$DIMDLI
 40
0.38
  9
$DIMRND
 40
0.0
  9
$DIMDLE
 40
0.0
  9
$DIMEXE
 40
0.18
  9
$DIMTP
 40
0.0
  9
$DIMTM
 40
0.0
  9
$DIMTXT
 40
0.18
  9
$DIMCEN
 40
0.09
  9
$DIMTSZ
 40
0.0
  9
$DIMTOL
 70
     0
  9
$DIMLIM
 70
     0
  9
$DIMTIH
 70
     1
  9
$DIMTOH
 70
     1
  9
$DIMSE1
 70
     0
  9
$DIMSE2
 70
     0
  9
$DIMTAD
 70
     0
  9
$DIMZIN
 70
     0
  9
$DIMBLK
  1

  9
$DIMASO
 70
     1
  9
$DIMSHO
 70
     1
  9
$DIMPOST
  1

  9
$DIMAPOST
  1

  9
$DIMALT
 70
     0
  9
$DIMALTD
 70
     2
  9
$DIMALTF
 40
25.4
  9
$DIMLFAC
 40
1.0
  9
$DIMTOFL
 70
     0
  9
$DIMTVP
 40
0.0
  9
$DIMTIX
 70
     0
  9
$DIMSOXD
 70
     0
  9
$DIMSAH
 70
     0
  9
$DIMBLK1
  1

  9
$DIMBLK2
  1

  9
$DIMSTYLE
  2
Standard
  9
$DIMCLRD
 70
     0
  9
$DIMCLRE
 70
     0
  9
$DIMCLRT
 70
     0
  9
$DIMTFAC
 40
1.0
  9
$DIMGAP
 40
0.09
  9
$DIMJUST
 70
     0
  9
$DIMSD1
 70
     0
  9
$DIMSD2
 70
     0
  9
$DIMTOLJ
 70
     1
  9
$DIMTZIN
 70
     0
  9
$DIMALTZ
 70
     0
  9
$DIMALTTZ
 70
     0
  9
$DIMUPT
 70
     0
  9
$DIMDEC
 70
     4
  9
$DIMTDEC
 70
     4
  9
$DIMALTU
 70
     2
  9
$DIMALTTD
 70
     2
  9
$DIMTXSTY
  7
Standard
  9
$DIMAUNIT
 70
     0
  9
$DIMADEC
 70
     0
  9
$DIMALTRND
 40
0.0
  9
$DIMAZIN
 70
     0
  9
$DIMDSEP
 70
    46
  9
$DIMATFIT
 70
     3
  9
$DIMFRAC
 70
     0
  9
$DIMLDRBLK
  1

  9
$DIMLUNIT
 70
     2
  9
$DIMLWD
 70
    -2
  9
$DIMLWE
 70
    -2
  9
$DIMTMOVE
 70
     0
  9
$DIMFXL
 40
1.0
  9
$DIMFXLON
 70
     0
  9
$DIMJOGANG
 40
0.7853981633974483
  9
$DIMTFILL
 70
     0
  9
$DIMTFILLCLR
 70
     0
  9
$DIMARCSYM
 70
     0
  9
$DIMLTYPE
  6

  9
$DIMLTEX1
  6

  9
$DIMLTEX2
  6

  9
$DIMTXTDIRECTION
 70
     0
  9
$LUNITS
 70
     2
  9
$LUPREC
 70
     4
  9
$SKETCHINC
 40
0.1
  9
$FILLETRAD
 40
0.5
  9
$AUNITS
 70
     0
  9
$AUPREC
 70
     0
  9
$MENU
  1
.
  9
$ELEVATION
 40
0.0
  9
$PELEVATION
 40
0.0
  9
$THICKNESS
 40
0.0
  9
$LIMCHECK
 70
     0
  9
$CHAMFERA
 40
0.5
  9
$CHAMFERB
 40
0.5
  9
$CHAMFERC
 40
1.0
  9
$CHAMFERD
 40
0.0
  9
$SKPOLY
 70
     0
  9
$TDCREATE
 40
2459072.971941621
  9
$TDUCREATE
 40
2459073.263608287
  9
$TDUPDATE
 40
2459072.971941643
  9
$TDUUPDATE
 40
2459073.26360831
  9
$TDINDWG
 40
0.0000000116
  9
$TDUSRTIMER
 40
0.0000000116
  9
$USRTIMER
 70
     1
  9
$ANGBASE
 50
0.0
  9
$ANGDIR
 70
     0
  9
$PDMODE
 70
     0
  9
$PDSIZE
 40
0.0
  9
$PLINEWID
 40
0.0
  9
$SPLFRAME
 70
     0
  9
$SPLINETYPE
 70
     6
  9
$SPLINESEGS
 70
     8
  9
$HANDSEED
  5
57
  9
$SURFTAB1
 70
     6
  9
$SURFTAB2
 70
     6
  9
$SURFTYPE
 70
     6
  9
$SURFU
 70
     6
  9
$SURFV
 70
     6
  9
$UCSBASE
  2

  9
$UCSNAME
  2

  9
$UCSORG
 10
0.0
 20
0.0
 30
0.0
  9
$UCSXDIR
 10
1.0
 20
0.0
 30
0.0
  9
$UCSYDIR
 10
0.0
 20
1.0
 30
0.0
  9
$UCSORTHOREF
  2

  9
$UCSORTHOVIEW
 70
     0
  9
$UCSORGTOP
 10
0.0
 20
0.0
 30
0.0
  9
$UCSORGBOTTOM
 10
0.0
 20
0.0
 30
0.0
  9
$UCSORGLEFT
 10
0.0
 20
0.0
 30
0.0
  9
$UCSORGRIGHT
 10
0.0
 20
0.0
 30
0.0
  9
$UCSORGFRONT
 10
0.0
 20
0.0
 30
0.0
  9
$UCSORGBACK
 10
0.0
 20
0.0
 30
0.0
  9
$PUCSBASE
  2

  9
$PUCSNAME
  2

  9
$PUCSORG
 10
0.0
 20
0.0
 30
0.0
  9
$PUCSXDIR
 10
1.0
 20
0.0
 30
0.0
  9
$PUCSYDIR
 10
0.0
 20
1.0
 30
0.0
  9
$PUCSORTHOREF
  2

  9
$PUCSORTHOVIEW
 70
     0
  9
$PUCSORGTOP
 10
0.0
 20
0.0
 30
0.0
  9
$PUCSORGBOTTOM
 10
0.0
 20
0.0
 30
0.0
  9
$PUCSORGLEFT
 10
0.0
 20
0.0
 30
0.0
  9
$PUCSORGRIGHT
 10
0.0
 20
0.0
 30
0.0
  9
$PUCSORGFRONT
 10
0.0
 20
0.0
 30
0.0
  9
$PUCSORGBACK
 10
0.0
 20
0.0
 30
0.0
  9
$USERI1
 70
     0
  9
$USERI2
 70
     0
  9
$USERI3
 70
     0
  9
$USERI4
 70
     0
  9
$USERI5
 70
     0
  9
$USERR1
 40
0.0
  9
$USERR2
 40
0.0
  9
$USERR3
 40
0.0
  9
$USERR4
 40
0.0
  9
$USERR5
 40
0.0
  9
$WORLDVIEW
 70
     1
  9
$SHADEDGE
 70
     3
  9
$SHADEDIF
 70
    70
  9
$TILEMODE
 70
     1
  9
$MAXACTVP
 70
    64
  9
$PINSBASE
 10
0.0
 20
0.0
 30
0.0
  9
$PLIMCHECK
 70
     0
  9
$PEXTMIN
 10
1.000000000000000E+20
 20
1.000000000000000E+20
 30
1.000000000000000E+20
  9
$PEXTMAX
 10
-1.000000000000000E+20
 20
-1.000000000000000E+20
 30
-1.000000000000000E+20
  9
$PLIMMIN
 10
0.0
 20
0.0
  9
$PLIMMAX
 10
12.0
 20
9.0
  9
$UNITMODE
 70
     0
  9
$VISRETAIN
 70
     1
  9
$PLINEGEN
 70
     0
  9
$PSLTSCALE
 70
     1
  9
$TREEDEPTH
 70
  3020
  9
$CMLSTYLE
  2
Standard
  9
$CMLJUST
 70
     0
  9
$CMLSCALE
 40
1.0
  9
$PROXYGRAPHICS
 70
     1
  9
$MEASUREMENT
 70
     0
  9
$CELWEIGHT
370
    -1
  9
$ENDCAPS
280
     0
  9
$JOINSTYLE
280
     0
  9
$LWDISPLAY
290
     1
  9
$INSUNITS
 70
     0
  9
$HYPERLINKBASE
  1

  9
$STYLESHEET
  1

  9
$XEDIT
290
     1
  9
$CEPSNTYPE
380
     0
  9
$PSTYLEMODE
290
     1
  9
$FINGERPRINTGUID
  2
{E884277A-0B71-4080-995F-B87BABB5CE64}
  9
$VERSIONGUID
  2
{FAEB1C32-E019-11D5-929B-00C0DF256EC4}
  9
$EXTNAMES
290
     1
  9
$PSVPSCALE
 40
0.0
  9
$OLESTARTUP
290
     0
  9
$SORTENTS
280
   127
  9
$INDEXCTL
280
     0
  9
$HIDETEXT
280
     1
  9
$XCLIPFRAME
280
     2
  9
$HALOGAP
280
     0
  9
$OBSCOLOR
 70
   257
  9
$OBSLTYPE
280
     0
  9
$INTERSECTIONDISPLAY
280
     0
  9
$INTERSECTIONCOLOR
 70
   257
  9
$DIMASSOC
280
     2
  9
$PROJECTNAME
  1

  9
$CAMERADISPLAY
290
     0
  9
$LENSLENGTH
 40
50.0
  9
$CAMERAHEIGHT
 40
0.0
  9
$STEPSPERSEC
 40
2.0
  9
$STEPSIZE
 40
6.0
  9
$3DDWFPREC
 40
2.0
  9
$PSOLWIDTH
 40
0.25
  9
$PSOLHEIGHT
 40
4.0
  9
$LOFTANG1
 40
1.570796326794897
  9
$LOFTANG2
 40
1.570796326794897
  9
$LOFTMAG1
 40
0.0
  9
$LOFTMAG2
 40
0.0
  9
$LOFTPARAM
 70
     7
  9
$LOFTNORMALS
280
     1
  9
$LATITUDE
 40
37.795
  9
$LONGITUDE
 40
-122.394
  9
$NORTHDIRECTION
 40
0.0
  9
$TIMEZONE
 70
 -8000
  9
$LIGHTGLYPHDISPLAY
280
     1
  9
$TILEMODELIGHTSYNCH
280
     1
  9
$CMATERIAL
347
3C
  9
$SOLIDHIST
280
     1
  9
$SHOWHIST
280
     1
  9
$DWFFRAME
280
     2
  9
$DGNFRAME
280
     2
  9
$REALWORLDSCALE
290
     1
  9
$INTERFERECOLOR
 62
   256
  9
$CSHADOW
280
     0
  9
$SHADOWPLANELOCATION
 40
0.0
  0
ENDSEC
  0
SECTION
  2
CLASSES
  0
CLASS
  1
ACDBDICTIONARYWDFLT
  2
AcDbDictionaryWithDefault
  3
ObjectDBX Classes
 90
        0
 91
        4
280
     0
281
     0
  0
CLASS
  1
VISUALSTYLE
  2
AcDbVisualStyle
  3
ObjectDBX Classes
 90
     4095
 91
        4
280
     0
281
     0
  0
CLASS
  1
MATERIAL
  2
AcDbMaterial
  3
ObjectDBX Classes
 90
     1153
 91
        4
280
     0
281
     0
  0
CLASS
  1
SUN
  2
AcDbSun
  3
SCENEOE
 90
     1024
 91
        4
280
     0
281
     0
  0
ENDSEC
  0
SECTION
  2
TABLES
  0
TABLE
  2
VPORT
  5
8
330
0
100
AcDbSymbolTable
 70
     1
  0
VPORT
  5
29
330
8
100
AcDbSymbolTableRecord
100
AcDbViewportTableRecord
  2
*Active
 70
     0
 10
0.0
 20
0.0
 11
1.0
 21
1.0
 12
0.0
 22
0.0
 13
0.0
 23
0.0
 14
0.5
 24
0.5
 15
0.5
 25
0.5
 16
0.0
 26
0.0
 36
1.0
 17
500.0
 27
-400.0
 37
0.0
 40
800.0
 41
1.25
 42
50.0
 43
0.0
 44
0.0
 50
0.0
 51
0.0
 71
     0
 72
   100
 73
     1
 74
     3
 75
     0
 76
     0
 77
     0
 78
     0
281
     0
 65
     1
110
0.0
120
0.0
130
0.0
111
1.0
121
0.0
131
0.0
112
0.0
122
1.0
132
0.0
 79
     0
146
0.0
 60
     3
 61
     5
292
     1
282
     1
141
0.0
142
0.0
 63
   250
361
3F
  0
ENDTAB
  0
TABLE
  2
LTYPE
  5
5
330
0
100
AcDbSymbolTable
 70
     1
  0
LTYPE
  5
14
330
5
100
AcDbSymbolTableRecord
100
AcDbLinetypeTableRecord
  2
ByBlock
 70
     0
  3

 72
    65
 73
     0
 40
0.0
  0
LTYPE
  5
15
330
5
100
AcDbSymbolTableRecord
100
AcDbLinetypeTableRecord
  2
ByLayer
 70
     0
  3

 72
    65
 73
     0
 40
0.0
  0
LTYPE
  5
16
330
5
100
AcDbSymbolTableRecord
100
AcDbLinetypeTableRecord
  2
Continuous
 70
     0
  3
Solid line
 72
    65
 73
     0
 40
0.0
  0
ENDTAB
  0
TABLE
  2
LAYER
  5
2
330
0
100
AcDbSymbolTable
 70
     2
  0
LAYER
  5
10
330
2
100
AcDbSymbolTableRecord
100
AcDbLayerTableRecord
  2
0
 70
     0
 62
     7
  6
Continuous
370
    -3
390
F
347
3E
  0
LAYER
  5
40
330
2
100
AcDbSymbolTableRecord
100
AcDbLayerTableRecord
  2
Layer 1
 70
     0
 62
     7
  6
Continuous
370
    -3
390
F
347
3E
  0
ENDTAB
  0
TABLE
  2
STYLE
  5
3
330
0
100
AcDbSymbolTable
 70
     1
  0
STYLE
  5
11
330
3
100
AcDbSymbolTableRecord
100
AcDbTextStyleTableRecord
  2
Standard
 70
     0
 40
0.0
 41
1.0
 50
0.0
 71
     0
 42
0.2
  3
txt
  4

  0
ENDTAB
  0
TABLE
  2
VIEW
  5
6
330
0
100
AcDbSymbolTable
 70
     0
  0
ENDTAB
  0
TABLE
  2
UCS
  5
7
330
0
100
AcDbSymbolTable
 70
     0
  0
ENDTAB
  0
TABLE
  2
APPID
  5
9
330
0
100
AcDbSymbolTable
 70
     1
  0
APPID
  5
12
330
9
100
AcDbSymbolTableRecord
100
AcDbRegAppTableRecord
  2
ACAD
 70
     0
  0
ENDTAB
  0
TABLE
  2
DIMSTYLE
  5
A
330
0
100
AcDbSymbolTable
 70
     1
100
AcDbDimStyleTable
  0
DIMSTYLE
105
27
330
A
100
AcDbSymbolTableRecord
100
AcDbDimStyleTableRecord
  2
Standard
 70
     0
178
     0
340
11
  0
ENDTAB
  0
TABLE
  2
BLOCK_RECORD
  5
1
330
0
100
AcDbSymbolTable
 70
     2
  0
BLOCK_RECORD
  5
1F
330
1
100
AcDbSymbolTableRecord
100
AcDbBlockTableRecord
  2
*Model_Space
340
22
 70
     0
280
     1
281
     0
  0
BLOCK_RECORD
  5
1B
330
1
100
AcDbSymbolTableRecord
100
AcDbBlockTableRecord
  2
*Paper_Space
340
1E
 70
     0
280
     1
281
     0
  0
BLOCK_RECORD
  5
23
330
1
100
AcDbSymbolTableRecord
100
AcDbBlockTableRecord
  2
*Paper_Space0
340
26
 70
     0
280
     1
281
     0
  0
BLOCK_RECORD
  5
44
330
1
100
AcDbSymbolTableRecord
100
AcDbBlockTableRecord
  2
block 2
340
0
102
{BLKREFS
331
45
102
}
 70
     0
280
     1
281
     0
  0
ENDTAB
  0
ENDSEC
  0
SECTION
  2
BLOCKS
  0
BLOCK
  5
20
330
1F
100
AcDbEntity
  8
0
100
AcDbBlockBegin
  2
*Model_Space
 70
     0
 10
0.0
 20
0.0
 30
0.0
  3
*Model_Space
  1

  0
ENDBLK
  5
21
330
1F
100
AcDbEntity
  8
0
100
AcDbBlockEnd
  0
BLOCK
  5
1C
330
1B
100
AcDbEntity
 67
     1
  8
0
100
AcDbBlockBegin
  2
*Paper_Space
 70
     0
 10
0.0
 20
0.0
 30
0.0
  3
*Paper_Space
  1

  0
ENDBLK
  5
1D
330
1B
100
AcDbEntity
 67
     1
  8
0
100
AcDbBlockEnd
  0
BLOCK
  5
24
330
23
100
AcDbEntity
  8
0
100
AcDbBlockBegin
  2
*Paper_Space0
 70
     0
 10
0.0
 20
0.0
 30
0.0
  3
*Paper_Space0
  1

  0
ENDBLK
  5
25
330
23
100
AcDbEntity
  8
0
100
AcDbBlockEnd
  0
BLOCK
  5
46
330
44
100
AcDbEntity
  8
0
100
AcDbBlockBegin
  2
block 2
 70
     0
 10
0.0
 20
0.0
 30
0.0
  3
block 2
  1

  0
SPLINE
  5
48
330
44
100
AcDbEntity
  8
Layer 1
370
     0
100
AcDbSpline
210
0.0
220
0.0
230
1.0
 70
    11
 71
     3
 72
    32
 73
    28
 74
     0
 42
0.0000000001
 43
0.0000000001
 12
1.0
 22
0.0
 32
0.0
 13
1.0
 23
0.0
 33
0.0
 40
0.0
 40
0.0
 40
0.0
 40
0.0
 40
1.0
 40
1.0
 40
1.0
 40
2.0
 40
2.0
 40
2.0
 40
3.0
 40
3.0
 40
3.0
 40
4.0
 40
4.0
 40
4.0
 40
5.0
 40
5.0
 40
5.0
 40
6.0
 40
6.0
 40
6.0
 40
7.0
 40
7.0
 40
7.0
 40
8.0
 40
8.0
 40
8.0
 40
9.0
 40
9.0
 40
9.0
 40
9.0
 10
581.0444746010689
 20
-143.7320455892623
 30
0.0
 10
568.7803547600342
 20
-146.8257613299829
 30
0.0
 10
558.9732933341838
 20
-152.9326663743332
 30
0.0
 10
554.0343556556181
 20
-166.2124368233162
 30
0.0
 10
548.4341967479304
 20
-181.2699812531037
 30
0.0
 10
552.0097863882002
 20
-194.3099453085442
 30
0.0
 10
559.4354852775068
 20
-206.9540091270073
 30
0.0
 10
572.0647233926538
 20
-228.458319221244
 30
0.0
 10
590.2510565008197
 20
-244.3032960668161
 30
0.0
 10
611.9225347506763
 20
-256.2781733736074
 30
0.0
 10
639.9020542763901
 20
-271.7386840168238
 30
0.0
 10
667.9314210541634
 20
-287.2568016389669
 30
0.0
 10
700.9781450018818
 20
-288.6052468905609
 30
0.0
 10
716.3029375083061
 20
-289.2304958759332
 30
0.0
 10
731.4575299128519
 20
-287.2758669281566
 30
0.0
 10
744.2887264822166
 20
-278.1853212089754
 30
0.0
 10
760.9201336596379
 20
-266.4024586004525
 30
0.0
 10
764.075104992582
 20
-245.0957902911859
 30
0.0
 10
753.1702734651844
 20
-223.7531754326246
 30
0.0
 10
743.0608396361167
 20
-203.9674135892956
 30
0.0
 10
727.1847467996995
 20
-189.6557793282163
 30
0.0
 10
708.9859775729747
 20
-177.5743984854516
 30
0.0
 10
677.4719281537909
 20
-156.6534811015317
 30
0.0
 10
644.1666665513148
 20
-140.9273411326494
 30
0.0
 10
605.1144278977117
 20
-141.0471030098925
 30
0.0
 10
597.073346695608
 20
-141.871663920123
 30
0.0
 10
588.8000389656045
 20
-141.7756694182181
 30
0.0
 10
581.0444746010689
 20
-143.7320455892623
 30
0.0
  0
SPLINE
  5
49
330
44
100
AcDbEntity
  8
Layer 1
370
     0
100
AcDbSpline
210
0.0
220
0.0
230
1.0
 70
    11
 71
     3
 72
    29
 73
    25
 74
     0
 42
0.0000000001
 43
0.0000000001
 12
1.0
 22
0.0
 32
0.0
 13
1.0
 23
0.0
 33
0.0
 40
0.0
 40
0.0
 40
0.0
 40
0.0
 40
1.0
 40
1.0
 40
1.0
 40
2.0
 40
2.0
 40
2.0
 40
3.0
 40
3.0
 40
3.0
 40
4.0
 40
4.0
 40
4.0
 40
5.0
 40
5.0
 40
5.0
 40
6.0
 40
6.0
 40
6.0
 40
7.0
 40
7.0
 40
7.0
 40
8.0
 40
8.0
 40
8.0
 40
8.0
 10
701.4753841884085
 20
-199.932150062763
 30
0.0
 10
713.7763498848326
 20
-209.4452154793007
 30
0.0
 10
723.9942143343615
 20
-220.8453591087346
 30
0.0
 10
731.4979216036954
 20
-234.6186173531096
 30
0.0
 10
737.9536032457036
 20
-246.4682855571764
 30
0.0
 10
734.560392881267
 20
-257.5236609246849
 30
0.0
 10
721.7449213213149
 20
-261.3191694465941
 30
0.0
 10
714.1606362259699
 20
-263.5653277355395
 30
0.0
 10
705.6192838910792
 20
-264.8346340508751
 30
0.0
 10
697.8533903536954
 20
-263.8423140124496
 30
0.0
 10
650.9400858835179
 20
-257.8477451464523
 30
0.0
 10
611.509984503733
 20
-237.4169238892273
 30
0.0
 10
581.5189998851092
 20
-200.3512010080422
 30
0.0
 10
577.6319420028449
 20
-195.5471592435579
 30
0.0
 10
574.8895723057685
 20
-189.1593880588653
 30
0.0
 10
573.5635840120594
 20
-183.0805670591044
 30
0.0
 10
570.984322745946
 20
-171.2564134536424
 30
0.0
 10
579.2179068410587
 20
-163.2545933861484
 30
0.0
 10
593.7429849799009
 20
-162.2996844812278
 30
0.0
 10
597.0944675415813
 20
-162.0793801826912
 30
0.0
 10
600.4728265082376
 20
-162.2672066840087
 30
0.0
 10
603.8388007452595
 20
-162.2672066840087
 30
0.0
 10
640.6262783210041
 20
-163.8575909693118
 30
0.0
 10
672.7063766901265
 20
-177.683317300648
 30
0.0
 10
701.4753841884085
 20
-199.932150062763
 30
0.0
  0
ENDBLK
  5
47
330
44
100
AcDbEntity
  8
0
100
AcDbBlockEnd
  0
ENDSEC
  0
SECTION
  2
ENTITIES
  0
SPLINE
  5
41
330
1F
100
AcDbEntity
  8
Layer 1
370
     0
100
AcDbSpline
210
0.0
220
0.0
230
1.0
 70
    11
 71
     3
 72
   209
 73
   205
 74
     0
 42
0.0000000001
 43
0.0000000001
 12
1.0
 22
0.0
 32
0.0
 13
1.0
 23
0.0
 33
0.0
 40
0.0
 40
0.0
 40
0.0
 40
0.0
 40
1.0
 40
1.0
 40
1.0
 40
2.0
 40
2.0
 40
2.0
 40
3.0
 40
3.0
 40
3.0
 40
4.0
 40
4.0
 40
4.0
 40
5.0
 40
5.0
 40
5.0
 40
6.0
 40
6.0
 40
6.0
 40
7.0
 40
7.0
 40
7.0
 40
8.0
 40
8.0
 40
8.0
 40
9.0
 40
9.0
 40
9.0
 40
10.0
 40
10.0
 40
10.0
 40
11.0
 40
11.0
 40
11.0
 40
12.0
 40
12.0
 40
12.0
 40
13.0
 40
13.0
 40
13.0
 40
14.0
 40
14.0
 40
14.0
 40
15.0
 40
15.0
 40
15.0
 40
16.0
 40
16.0
 40
16.0
 40
17.0
 40
17.0
 40
17.0
 40
18.0
 40
18.0
 40
18.0
 40
19.0
 40
19.0
 40
19.0
 40
20.0
 40
20.0
 40
20.0
 40
21.0
 40
21.0
 40
21.0
 40
22.0
 40
22.0
 40
22.0
 40
23.0
 40
23.0
 40
23.0
 40
24.0
 40
24.0
 40
24.0
 40
25.0
 40
25.0
 40
25.0
 40
26.0
 40
26.0
 40
26.0
 40
27.0
 40
27.0
 40
27.0
 40
28.0
 40
28.0
 40
28.0
 40
29.0
 40
29.0
 40
29.0
 40
30.0
 40
30.0
 40
30.0
 40
31.0
 40
31.0
 40
31.0
 40
32.0
 40
32.0
 40
32.0
 40
33.0
 40
33.0
 40
33.0
 40
34.0
 40
34.0
 40
34.0
 40
35.0
 40
35.0
 40
35.0
 40
36.0
 40
36.0
 40
36.0
 40
37.0
 40
37.0
 40
37.0
 40
38.0
 40
38.0
 40
38.0
 40
39.0
 40
39.0
 40
39.0
 40
40.0
 40
40.0
 40
40.0
 40
41.0
 40
41.0
 40
41.0
 40
42.0
 40
42.0
 40
42.0
 40
43.0
 40
43.0
 40
43.0
 40
44.0
 40
44.0
 40
44.0
 40
45.0
 40
45.0
 40
45.0
 40
46.0
 40
46.0
 40
46.0
 40
47.0
 40
47.0
 40
47.0
 40
48.0
 40
48.0
 40
48.0
 40
49.0
 40
49.0
 40
49.0
 40
50.0
 40
50.0
 40
50.0
 40
51.0
 40
51.0
 40
51.0
 40
52.0
 40
52.0
 40
52.0
 40
53.0
 40
53.0
 40
53.0
 40
54.0
 40
54.0
 40
54.0
 40
55.0
 40
55.0
 40
55.0
 40
56.0
 40
56.0
 40
56.0
 40
57.0
 40
57.0
 40
57.0
 40
58.0
 40
58.0
 40
58.0
 40
59.0
 40
59.0
 40
59.0
 40
60.0
 40
60.0
 40
60.0
 40
61.0
 40
61.0
 40
61.0
 40
62.0
 40
62.0
 40
62.0
 40
63.0
 40
63.0
 40
63.0
 40
64.0
 40
64.0
 40
64.0
 40
65.0
 40
65.0
 40
65.0
 40
66.0
 40
66.0
 40
66.0
 40
67.0
 40
67.0
 40
67.0
 40
68.0
 40
68.0
 40
68.0
 40
68.0
 10
793.6694699293512
 20
-566.7686897820713
 30
0.0
 10
795.2209014135587
 20
-590.2390371642468
 30
0.0
 10
780.1877924150649
 20
-597.5776318347489
 30
0.0
 10
760.8431530580056
 20
-601.5355036482906
 30
0.0
 10
736.6418496827391
 20
-606.4870316121669
 30
0.0
 10
706.26647594514
 20
-595.1223206428294
 30
0.0
 10
692.6415261228758
 20
-574.9363418932735
 30
0.0
 10
691.0117779251195
 20
-572.521833503557
 30
0.0
 10
690.1312801758504
 20
-569.601503977734
 30
0.0
 10
688.9034961075922
 20
-566.9156620922695
 30
0.0
 10
689.4506339350992
 20
-566.3044936708793
 30
0.0
 10
689.9978231515233
 20
-565.6933252494928
 30
0.0
 10
690.5449609790267
 20
-565.0821568281062
 30
0.0
 10
694.6499078806046
 20
-567.5132638388677
 30
0.0
 10
698.7529020032343
 20
-569.9477625183281
 30
0.0
 10
702.8603155729543
 20
-572.3748098044416
 30
0.0
 10
722.2285938330533
 20
-583.8196874884306
 30
0.0
 10
742.8532284007342
 20
-590.3585164024298
 30
0.0
 10
765.2299167949386
 20
-584.4503836992844
 30
0.0
 10
771.9073930141531
 20
-582.68733264396
 30
0.0
 10
778.2352190240745
 20
-577.3113322037789
 30
0.0
 10
783.2226164538661
 20
-572.1426346654662
 30
0.0
 10
787.3887161698258
 20
-567.8251945811389
 30
0.0
 10
786.1144765182071
 20
-563.0862111889292
 30
0.0
 10
779.0172556032958
 20
-561.1685822633008
 30
0.0
 10
764.5948525259118
 20
-557.2715549306267
 30
0.0
 10
754.9913939997132
 20
-547.4377712665555
 30
0.0
 10
748.5468123643477
 20
-534.3965481825835
 30
0.0
 10
746.8987697111988
 20
-531.061715630869
 30
0.0
 10
746.4439777723019
 20
-527.1372980040214
 30
0.0
 10
746.2469526543682
 20
-522.3454354134956
 30
0.0
 10
769.3841970593785
 20
-548.0271507860125
 30
0.0
 10
796.7451995481933
 20
-552.634321599322
 30
0.0
 10
827.3353789699249
 20
-540.4666587604661
 30
0.0
 10
835.7459978932275
 20
-537.1211887023856
 30
0.0
 10
841.7003292351401
 20
-527.8599803810466
 30
0.0
 10
842.7991271150786
 20
-519.2757696871704
 30
0.0
 10
821.7629700788457
 20
-519.4528045153602
 30
0.0
 10
800.43286842222
 20
-519.9079047877749
 30
0.0
 10
784.2114420457583
 20
-503.3022434590966
 30
0.0
 10
781.7585461330636
 20
-500.7912266782769
 30
0.0
 10
780.8221372392145
 20
-496.7989242885706
 30
0.0
 10
779.8540727708641
 20
-492.5643745316411
 30
0.0
 10
807.8279395154168
 20
-513.0232284445337
 30
0.0
 10
835.0687947100923
 20
-507.2616055513063
 30
0.0
 10
861.8768524234802
 20
-491.9207283130345
 30
0.0
 10
876.909961421974
 20
-483.3180176080823
 30
0.0
 10
887.8410012983913
 20
-469.6168580179728
 30
0.0
 10
888.7448296171824
 20
-453.0810856200187
 30
0.0
 10
862.0826136577562
 20
-472.3819416175393
 30
0.0
 10
833.178401911875
 20
-475.6752005332564
 30
0.0
 10
802.8103254008674
 20
-470.0755041258417
 30
0.0
 10
802.6133002829338
 20
-469.1539980186935
 30
0.0
 10
802.4162751650001
 20
-468.2324919115454
 30
0.0
 10
802.2192500470628
 20
-467.3110371933144
 30
0.0
 10
808.3639259473566
 20
-466.1006225798992
 30
0.0
 10
814.4670796005703
 20
-464.5925119549538
 30
0.0
 10
820.6600610853347
 20
-463.7285100488916
 30
0.0
 10
859.010481263289
 20
-458.3781526796156
 30
0.0
 10
887.073867505871
 20
-437.1505205287722
 30
0.0
 10
908.6398443036851
 20
-406.3223590201451
 30
0.0
 10
915.0132008964174
 20
-397.2117202333802
 30
0.0
 10
917.4230328944468
 20
-386.4936874289097
 30
0.0
 10
916.0018209326263
 20
-373.6816075376537
 30
0.0
 10
892.5770041332617
 20
-397.818777541198
 30
0.0
 10
867.3802973843922
 20
-417.2682502943426
 30
0.0
 10
832.3965708883334
 20
-418.8160331652543
 30
0.0
 10
856.2639490637193
 20
-405.9399226801143
 30
0.0
 10
878.17053162097
 20
-390.5912857149751
 30
0.0
 10
895.1000973101982
 20
-369.35640772646
 30
0.0
 10
912.1353186182241
 20
-347.9888435474104
 30
0.0
 10
924.0803646571585
 20
-324.4895128145517
 30
0.0
 10
922.2268691032514
 20
-293.439865062237
 30
0.0
 10
911.5181376932378
 20
-312.3557152737449
 30
0.0
 10
901.6947345909393
 20
-328.9348599198847
 30
0.0
 10
885.8172028647678
 20
-341.0067852014345
 30
0.0
 10
870.4713409012911
 20
-352.674588018861
 30
0.0
 10
855.0051260879918
 20
-363.6517237562039
 30
0.0
 10
836.1552592493135
 20
-368.1619236781344
 30
0.0
 10
835.766553461086
 20
-367.4803010479072
 30
0.0
 10
835.3779504507002
 20
-366.7987298066
 30
0.0
 10
834.9892446624726
 20
-366.1171585652937
 30
0.0
 10
845.708356634259
 20
-357.4269325301784
 30
0.0
 10
856.9039466690301
 20
-349.2553748610826
 30
0.0
 10
867.04626940667
 20
-339.9374845613729
 30
0.0
 10
887.5124205461543
 20
-321.1348441398522
 30
0.0
 10
904.4549362431353
 20
-299.3161880241214
 30
0.0
 10
911.583401621192
 20
-272.1408537019979
 30
0.0
 10
918.2876000786237
 20
-246.5829085424539
 30
0.0
 10
913.6070972769776
 20
-221.2237871130319
 30
0.0
 10
904.5550418586099
 20
-196.7589613578057
 30
0.0
 10
903.693866343132
 20
-196.7478099622413
 30
0.0
 10
902.8326908276504
 20
-196.7366585666778
 30
0.0
 10
901.9715153121688
 20
-196.7255071711133
 30
0.0
 10
901.9715153121688
 20
-203.0813144477852
 30
0.0
 10
902.0636042561782
 20
-209.4386633920449
 30
0.0
 10
901.9553791913968
 20
-215.7925949731489
 30
0.0
 10
901.4968872502868
 20
-242.7150701161381
 30
0.0
 10
891.2542533414926
 20
-266.4679280840865
 30
0.0
 10
877.4729784256524
 20
-288.8489331475375
 30
0.0
 10
855.5026736080363
 20
-324.5289281159221
 30
0.0
 10
826.7432758377254
 20
-353.5319093653688
 30
0.0
 10
789.7644259252083
 20
-373.5750783072208
 30
0.0
 10
769.8801001339925
 20
-384.3526708695654
 30
0.0
 10
748.9734431752768
 20
-393.229798405443
 30
0.0
 10
728.9178895037876
 20
-403.7103630122147
 30
0.0
 10
716.0729207039549
 20
-410.422732307874
 30
0.0
 10
703.9557217841975
 20
-418.5242468794859
 30
0.0
 10
691.4803420944809
 20
-425.9492777128398
 30
0.0
 10
683.672566587582
 20
-430.5962235499537
 30
0.0
 10
679.9504671373907
 20
-437.0894704922284
 30
0.0
 10
682.2919518722883
 20
-446.2317134645782
 30
0.0
 10
685.4946635115848
 20
-458.7361278938952
 30
0.0
 10
681.1385789596825
 20
-470.3072167645405
 30
0.0
 10
676.3567885974044
 20
-481.0601426454559
 30
0.0
 10
667.7540778924522
 20
-500.4053986695508
 30
0.0
 10
661.5782603068546
 20
-519.5996740477167
 30
0.0
 10
661.6032867107206
 20
-541.35676623771
 30
0.0
 10
661.6235853339822
 20
-558.9642031660296
 30
0.0
 10
656.4329961158983
 20
-576.3982538794517
 30
0.0
 10
647.3406517845287
 20
-592.1078980051279
 30
0.0
 10
631.8309105562876
 20
-618.9055751567503
 30
0.0
 10
599.0737631707889
 20
-619.0582002481096
 30
0.0
 10
580.5655298699385
 20
-608.9070900052066
 30
0.0
 10
556.3116556298737
 20
-595.6046570426588
 30
0.0
 10
548.4350703595628
 20
-570.4737281109374
 30
0.0
 10
554.5747101457309
 20
-541.7257386807905
 30
0.0
 10
557.4113785103655
 20
-528.4433987858247
 30
0.0
 10
561.8493770001878
 20
-514.2566652939531
 30
0.0
 10
559.6532715189824
 20
-501.4968479339805
 30
0.0
 10
557.4630243746142
 20
-488.7714611501724
 30
0.0
 10
548.9461331654747
 20
-476.5832941323752
 30
0.0
 10
541.2824521892726
 20
-465.4859597119757
 30
0.0
 10
530.7827195154714
 20
-450.2818797778091
 30
0.0
 10
521.858673895953
 20
-434.7988093988643
 30
0.0
 10
520.080103386892
 20
-416.111434324117
 30
0.0
 10
519.5285461122985
 20
-410.3167683555585
 30
0.0
 10
519.5200155516359
 20
-404.3971759233282
 30
0.0
 10
519.9847255520253
 20
-398.5925405043545
 30
0.0
 10
521.4587653232411
 20
-380.1808669835245
 30
0.0
 10
533.1378223140746
 20
-369.9601247544988
 30
0.0
 10
548.9420734408232
 20
-362.9517038927424
 30
0.0
 10
589.8928243419468
 20
-344.7919388560331
 30
0.0
 10
634.7385470189583
 20
-362.9769358522908
 30
0.0
 10
658.1586874266359
 20
-389.4749642134384
 30
0.0
 10
665.2789305775514
 20
-397.5309482022431
 30
0.0
 10
671.3210855831421
 20
-406.5398883170201
 30
0.0
 10
678.391995371192
 20
-415.814098035029
 30
0.0
 10
704.7699278271175
 20
-390.2535063461228
 30
0.0
 10
740.1262239906318
 20
-378.3273714296183
 30
0.0
 10
771.7134512313969
 20
-360.0007979597276
 30
0.0
 10
804.9346405613251
 20
-340.7260989223096
 30
0.0
 10
833.9683523847234
 20
-317.2380223628552
 30
0.0
 10
857.1122773492862
 20
-285.8091243835297
 30
0.0
 10
876.5441750919126
 20
-259.4212481716504
 30
0.0
 10
889.6543107171346
 20
-231.1827541853654
 30
0.0
 10
895.3206585533298
 20
-199.2062044893391
 30
0.0
 10
895.9515089309461
 20
-195.6461086083427
 30
0.0
 10
895.8107032911066
 20
-191.9534036201912
 30
0.0
 10
896.1071145796413
 20
-188.328711867196
 30
0.0
 10
896.3925286393751
 20
-184.8391472784178
 30
0.0
 10
896.7806177605635
 20
-181.3580361669219
 30
0.0
 10
897.123587410304
 20
-177.8731993587517
 30
0.0
 10
897.9926768194091
 20
-177.5426658275683
 30
0.0
 10
898.8617662285178
 20
-177.2121322963849
 30
0.0
 10
899.7309584154646
 20
-176.8815987652024
 30
0.0
 10
905.0843477309973
 20
-185.0229397495432
 30
0.0
 10
911.0434068535178
 20
-192.8361624819254
 30
0.0
 10
915.6683068441052
 20
-201.3722731470116
 30
0.0
 10
926.0897741932822
 20
-220.60737702184
 30
0.0
 10
932.5549113965062
 20
-240.9368336350581
 30
0.0
 10
928.9838953700819
 20
-263.2432476816393
 30
0.0
 10
926.6247328468271
 20
-277.9802794195748
 30
0.0
 10
930.5012046116462
 20
-292.1598698516154
 30
0.0
 10
933.3639785474625
 20
-306.2176171551673
 30
0.0
 10
937.4152754169263
 20
-326.111398507599
 30
0.0
 10
931.7813026001058
 20
-343.7611285167895
 30
0.0
 10
924.3880815080192
 20
-361.5500197203919
 30
0.0
 10
922.8435361390402
 20
-365.26662055618
 30
0.0
 10
922.717427730222
 20
-370.0464067505891
 30
0.0
 10
923.354547556035
 20
-374.1143022410997
 30
0.0
 10
926.1455825600206
 20
-391.9339754075709
 30
0.0
 10
926.5534050263559
 20
-409.488378970811
 30
0.0
 10
916.9200381489209
 20
-425.4937663290693
 30
0.0
 10
913.4180888305054
 20
-431.3120198117504
 30
0.0
 10
908.1580217930532
 20
-436.1796810587584
 30
0.0
 10
903.2305438435724
 20
-441.0012978337618
 30
0.0
 10
898.5878632867862
 20
-445.5442838864292
 30
0.0
 10
895.9839867281626
 20
-449.5424960018936
 30
0.0
 10
897.4317153725206
 20
-457.0026254673685
 30
0.0
 10
901.267076001619
 20
-476.7654164636151
 30
0.0
 10
893.9766327488251
 20
-492.6509134723274
 30
0.0
 10
877.2026727082957
 20
-503.906525765251
 30
0.0
 10
871.6405416011476
 20
-507.6386974436937
 30
0.0
 10
865.6312241152118
 20
-510.7104187268014
 30
0.0
 10
860.1203791498738
 20
-514.5102696124231
 30
0.0
 10
857.767280519136
 20
-516.1328233614258
 30
0.0
 10
854.7738759495696
 20
-518.6529873699401
 30
0.0
 10
854.4348118577254
 20
-521.0935499419211
 30
0.0
 10
850.1232814991599
 20
-552.134821300333
 30
0.0
 10
827.6853375127357
 20
-563.2170473783553
 30
0.0
 10
801.1961994346893
 20
-566.1745310930855
 30
0.0
 10
799.0236814675991
 20
-566.4170867938301
 30
0.0
 10
796.8360551581318
 20
-566.5228451904695
 30
0.0
 10
793.6694699293512
 20
-566.7686897820713
 30
0.0
  0
SPLINE
  5
42
330
1F
100
AcDbEntity
  8
Layer 1
370
     0
100
AcDbSpline
210
0.0
220
0.0
230
1.0
 70
    11
 71
     3
 72
    38
 73
    34
 74
     0
 42
0.0000000001
 43
0.0000000001
 12
1.0
 22
0.0
 32
0.0
 13
1.0
 23
0.0
 33
0.0
 40
0.0
 40
0.0
 40
0.0
 40
0.0
 40
1.0
 40
1.0
 40
1.0
 40
2.0
 40
2.0
 40
2.0
 40
3.0
 40
3.0
 40
3.0
 40
4.0
 40
4.0
 40
4.0
 40
5.0
 40
5.0
 40
5.0
 40
6.0
 40
6.0
 40
6.0
 40
7.0
 40
7.0
 40
7.0
 40
8.0
 40
8.0
 40
8.0
 40
9.0
 40
9.0
 40
9.0
 40
10.0
 40
10.0
 40
10.0
 40
11.0
 40
11.0
 40
11.0
 40
11.0
 10
544.8998724101366
 20
-548.0116313322796
 30
0.0
 10
538.6955853630534
 20
-533.22524053702
 30
0.0
 10
527.0424797766427
 20
-522.5312063580241
 30
0.0
 10
514.0290580982037
 20
-514.6412599686082
 30
0.0
 10
494.382251893604
 20
-502.7296681163643
 30
0.0
 10
483.8667428214703
 20
-486.8463294422727
 30
0.0
 10
481.8884235817359
 20
-463.9230684986833
 30
0.0
 10
480.2701351130627
 20
-445.1725364416889
 30
0.0
 10
480.224039252138
 20
-425.669824767785
 30
0.0
 10
468.8794213503834
 20
-409.1275259770337
 30
0.0
 10
457.5622965206421
 20
-392.6252077657709
 30
0.0
 10
445.2917530646491
 20
-377.3013402599026
 30
0.0
 10
422.2306670385597
 20
-379.1991844514669
 30
0.0
 10
406.1387407396132
 20
-380.5234769108274
 30
0.0
 10
391.4953139188192
 20
-387.0276696929841
 30
0.0
 10
379.7599860609735
 20
-397.2766758278167
 30
0.0
 10
352.1964084509
 20
-421.3491985704422
 30
0.0
 10
338.9063602179867
 20
-452.2160559355652
 30
0.0
 10
343.9450437895894
 20
-489.0333390847045
 30
0.0
 10
348.0999921099847
 20
-519.3938614245235
 30
0.0
 10
362.0726907515182
 20
-543.4971147410979
 30
0.0
 10
391.8638752505431
 20
-556.4857155713507
 30
0.0
 10
409.0292646920407
 20
-563.9696381066206
 30
0.0
 10
424.8751922326264
 20
-573.4101423686116
 30
0.0
 10
437.4126497372772
 20
-588.4005471748787
 30
0.0
 10
449.2020387385946
 20
-602.4964250568082
 30
0.0
 10
465.3401636763065
 20
-611.659634708376
 30
0.0
 10
482.3090932779842
 20
-618.7379958897727
 30
0.0
 10
515.1040115194228
 20
-632.4179832449845
 30
0.0
 10
550.0916435733743
 20
-602.9836947929216
 30
0.0
 10
550.2806006309256
 20
-565.3943959038916
 30
0.0
 10
548.5180120758778
 20
-559.5871396500188
 30
0.0
 10
547.2356529749522
 20
-553.5783360532769
 30
0.0
 10
544.8998724101366
 20
-548.0116313322796
 30
0.0
  0
SPLINE
  5
43
330
1F
100
AcDbEntity
  8
Layer 1
370
     0
100
AcDbSpline
210
0.0
220
0.0
230
1.0
 70
    11
 71
     3
 72
   161
 73
   157
 74
     0
 42
0.0000000001
 43
0.0000000001
 12
1.0
 22
0.0
 32
0.0
 13
1.0
 23
0.0
 33
0.0
 40
0.0
 40
0.0
 40
0.0
 40
0.0
 40
1.0
 40
1.0
 40
1.0
 40
2.0
 40
2.0
 40
2.0
 40
3.0
 40
3.0
 40
3.0
 40
4.0
 40
4.0
 40
4.0
 40
5.0
 40
5.0
 40
5.0
 40
6.0
 40
6.0
 40
6.0
 40
7.0
 40
7.0
 40
7.0
 40
8.0
 40
8.0
 40
8.0
 40
9.0
 40
9.0
 40
9.0
 40
10.0
 40
10.0
 40
10.0
 40
11.0
 40
11.0
 40
11.0
 40
12.0
 40
12.0
 40
12.0
 40
13.0
 40
13.0
 40
13.0
 40
14.0
 40
14.0
 40
14.0
 40
15.0
 40
15.0
 40
15.0
 40
16.0
 40
16.0
 40
16.0
 40
17.0
 40
17.0
 40
17.0
 40
18.0
 40
18.0
 40
18.0
 40
19.0
 40
19.0
 40
19.0
 40
20.0
 40
20.0
 40
20.0
 40
21.0
 40
21.0
 40
21.0
 40
22.0
 40
22.0
 40
22.0
 40
23.0
 40
23.0
 40
23.0
 40
24.0
 40
24.0
 40
24.0
 40
25.0
 40
25.0
 40
25.0
 40
26.0
 40
26.0
 40
26.0
 40
27.0
 40
27.0
 40
27.0
 40
28.0
 40
28.0
 40
28.0
 40
29.0
 40
29.0
 40
29.0
 40
30.0
 40
30.0
 40
30.0
 40
31.0
 40
31.0
 40
31.0
 40
32.0
 40
32.0
 40
32.0
 40
33.0
 40
33.0
 40
33.0
 40
34.0
 40
34.0
 40
34.0
 40
35.0
 40
35.0
 40
35.0
 40
36.0
 40
36.0
 40
36.0
 40
37.0
 40
37.0
 40
37.0
 40
38.0
 40
38.0
 40
38.0
 40
39.0
 40
39.0
 40
39.0
 40
40.0
 40
40.0
 40
40.0
 40
41.0
 40
41.0
 40
41.0
 40
42.0
 40
42.0
 40
42.0
 40
43.0
 40
43.0
 40
43.0
 40
44.0
 40
44.0
 40
44.0
 40
45.0
 40
45.0
 40
45.0
 40
46.0
 40
46.0
 40
46.0
 40
47.0
 40
47.0
 40
47.0
 40
48.0
 40
48.0
 40
48.0
 40
49.0
 40
49.0
 40
49.0
 40
50.0
 40
50.0
 40
50.0
 40
51.0
 40
51.0
 40
51.0
 40
52.0
 40
52.0
 40
52.0
 40
52.0
 10
439.7123038915779
 20
-678.0614161217127
 30
0.0
 10
428.2296553516462
 20
-696.2532478442845
 30
0.0
 10
414.5642624496149
 20
-711.8794877533692
 30
0.0
 10
391.7498432378416
 20
-715.7078594893937
 30
0.0
 10
383.3664604419528
 20
-717.1146825537107
 30
0.0
 10
375.5363821439259
 20
-716.8285490491035
 30
0.0
 10
370.4581804931131
 20
-708.0101076594619
 30
0.0
 10
382.7345308970262
 20
-691.6311742442776
 30
0.0
 10
391.3284027077989
 20
-674.4397306205174
 30
0.0
 10
380.4275795161348
 20
-653.5538861742571
 30
0.0
 10
375.919949040187
 20
-672.6185073081506
 30
0.0
 10
367.3752050365993
 20
-688.7213280580618
 30
0.0
 10
350.8752507156387
 20
-699.8292999848309
 30
0.0
 10
332.308845157746
 20
-712.3284213554216
 30
0.0
 10
311.5338980000897
 20
-713.4193053417366
 30
0.0
 10
298.2173330846372
 20
-701.8668706489225
 30
0.0
 10
301.7972393941582
 20
-699.1107801102953
 30
0.0
 10
305.5151249529372
 20
-696.6918008845678
 30
0.0
 10
308.7039101950086
 20
-693.7073893759443
 30
0.0
 10
317.0329235139097
 20
-685.9126666546363
 30
0.0
 10
325.8296273905371
 20
-678.4562885802989
 30
0.0
 10
333.1178095308633
 20
-669.7573264288403
 30
0.0
 10
339.986760864691
 20
-661.5586867990896
 30
0.0
 10
340.1300845615924
 20
-652.1477825548172
 30
0.0
 10
335.5917749006139
 20
-645.1064213955651
 30
0.0
 10
321.3994400165002
 20
-675.546442394083
 30
0.0
 10
296.8546531022994
 20
-688.7092002730242
 30
0.0
 10
264.1913932730013
 20
-687.8118983470304
 30
0.0
 10
249.8228971723302
 20
-687.4173342219619
 30
0.0
 10
236.8895651251614
 20
-683.0592455021942
 30
0.0
 10
226.3840511978988
 20
-673.177156253656
 30
0.0
 10
241.6537290879978
 20
-668.8986175815044
 30
0.0
 10
256.1192217745074
 20
-665.7506351416341
 30
0.0
 10
269.9175578116701
 20
-660.7586640979935
 30
0.0
 10
288.7863871616992
 20
-653.9322114007155
 30
0.0
 10
302.2556799463482
 20
-642.8940256268288
 30
0.0
 10
304.2646269821944
 20
-635.0563931576144
 30
0.0
 10
299.9351618906703
 20
-637.0327596184034
 30
0.0
 10
295.5178731354654
 20
-639.283491521197
 30
0.0
 10
290.9305384451418
 20
-641.1062565011525
 30
0.0
 10
254.2162386909777
 20
-655.6944916222456
 30
0.0
 10
217.5602396661561
 20
-657.5145843783794
 30
0.0
 10
181.0527032302007
 20
-640.3469338244176
 30
0.0
 10
171.0169097229918
 20
-635.627632388434
 30
0.0
 10
163.0303521646338
 20
-629.0357701093562
 30
0.0
 10
159.1450158111766
 20
-617.0081934654627
 30
0.0
 10
191.7942978543324
 20
-626.6241394991375
 30
0.0
 10
222.6346899258342
 20
-627.9191916632153
 30
0.0
 10
252.1222686875726
 20
-610.424604802447
 30
0.0
 10
225.7311806682164
 20
-611.8034722944722
 30
0.0
 10
199.5550011108317
 20
-610.7669577851484
 30
0.0
 10
174.2608609703066
 20
-602.9283489264599
 30
0.0
 10
148.3646996360912
 20
-594.9033010672865
 30
0.0
 10
126.7095630626836
 20
-580.6668744901144
 30
0.0
 10
111.2854357745791
 20
-555.6434511783009
 30
0.0
 10
124.7965334453629
 20
-560.7688278573514
 30
0.0
 10
136.4220945708394
 20
-566.3530048110297
 30
0.0
 10
148.6735984321022
 20
-569.5013469733349
 30
0.0
 10
161.3159407217572
 20
-572.7502058624777
 30
0.0
 10
174.5163409843426
 20
-574.6475875537653
 30
0.0
 10
187.5643987946278
 20
-575.2999184997898
 30
0.0
 10
205.8701083631413
 20
-576.215000991986
 30
0.0
 10
217.7566738115156
 20
-573.1679977792264
 30
0.0
 10
224.5082271584042
 20
-568.0014071866171
 30
0.0
 10
215.4449689555568
 20
-566.9734232379524
 30
0.0
 10
206.872808963336
 20
-565.9195392737893
 30
0.0
 10
198.282688543698
 20
-565.0411998591444
 30
0.0
 10
165.0970346517051
 20
-561.6478867168698
 30
0.0
 10
134.2872446818528
 20
-552.6768202358726
 30
0.0
 10
108.7442793923856
 20
-529.588086971009
 30
0.0
 10
88.57993537800212
 20
-511.361259394158
 30
0.0
 10
77.58694615894728
 20
-488.7628278116717
 30
0.0
 10
73.12975390763495
 20
-461.7442296944791
 30
0.0
 10
74.42524287753167
 20
-462.5664524088643
 30
0.0
 10
75.3128322977118
 20
-462.8417428514258
 30
0.0
 10
75.74218672138068
 20
-463.4437640451142
 30
0.0
 10
93.35275837379959
 20
-488.1380927154969
 30
0.0
 10
114.8844844566693
 20
-508.2333186329524
 30
0.0
 10
141.724480383622
 20
-522.9234579817094
 30
0.0
 10
173.3699569648088
 20
-540.2437850159477
 30
0.0
 10
207.2334820958931
 20
-549.9688811149572
 30
0.0
 10
242.877427737144
 20
-549.6677934347317
 30
0.0
 10
275.7708585375512
 20
-549.3899335461902
 30
0.0
 10
308.6310920958658
 20
-545.0291212136799
 30
0.0
 10
341.5024770497439
 20
-542.4239085431436
 30
0.0
 10
348.3478922583727
 20
-541.8813443294894
 30
0.0
 10
355.1785074581421
 20
-541.1511591701928
 30
0.0
 10
363.3659443034094
 20
-540.3803253754559
 30
0.0
 10
360.3521897216633
 20
-535.9926880268904
 30
0.0
 10
357.5839713980013
 20
-533.1139835259819
 30
0.0
 10
356.1860900057036
 20
-529.6777092468801
 30
0.0
 10
353.6050301274045
 20
-523.3330276713132
 30
0.0
 10
349.1609677450624
 20
-521.9548282352407
 30
0.0
 10
342.9364334636348
 20
-522.567178601781
 30
0.0
 10
331.7826226205379
 20
-523.664486203048
 30
0.0
 10
320.5876492528023
 20
-524.3425629978192
 30
0.0
 10
309.4104564512654
 20
-525.2025565681506
 30
0.0
 10
284.0553690520355
 20
-527.1534341247898
 30
0.0
 10
258.8978206599386
 20
-530.6840584603706
 30
0.0
 10
233.205519169971
 20
-527.9640943322556
 30
0.0
 10
205.162894050929
 20
-524.9953050552031
 30
0.0
 10
177.9902833415472
 20
-519.3529558444825
 30
0.0
 10
152.1364664771227
 20
-508.2357339121772
 30
0.0
 10
120.3067092300726
 20
-494.5488090528124
 30
0.0
 10
92.41819948105967
 20
-475.492101812546
 30
0.0
 10
72.07859355621076
 20
-446.7021790239669
 30
0.0
 10
71.1431096629176
 20
-445.3779893424435
 30
0.0
 10
69.27085715333851
 20
-444.7155861681676
 30
0.0
 10
66.67217087559857
 20
-442.9591128945576
 30
0.0
 10
65.13086300856048
 20
-462.225075815637
 30
0.0
 10
63.18550976078131
 20
-480.3119713642809
 30
0.0
 10
70.98097762142424
 20
-497.048571660227
 30
0.0
 10
78.49241892316604
 20
-513.1753910356165
 30
0.0
 10
87.87896481952703
 20
-528.4285473880482
 30
0.0
 10
96.4306206328074
 20
-544.0715400849367
 30
0.0
 10
97.62096787310202
 20
-546.248991388311
 30
0.0
 10
99.30516263122445
 20
-548.3388245836868
 30
0.0
 10
99.81781849364415
 20
-550.6760440382495
 30
0.0
 10
104.6077283052246
 20
-572.5128918315386
 30
0.0
 10
116.3718853469954
 20
-589.8336299771327
 30
0.0
 10
134.4961149457677
 20
-602.4712958751006
 30
0.0
 10
143.5451898067922
 20
-608.7810329853055
 30
0.0
 10
150.0705548238457
 20
-615.5330745269312
 30
0.0
 10
154.286835819843
 20
-626.4392421662415
 30
0.0
 10
163.2598293853271
 20
-649.6494588371534
 30
0.0
 10
182.1628066724625
 20
-662.6283471615898
 30
0.0
 10
205.759956213873
 20
-669.4146651126212
 30
0.0
 10
209.5801828061331
 20
-670.5133088258008
 30
0.0
 10
214.4730503182318
 20
-673.1639493013063
 30
0.0
 10
215.914329653172
 20
-676.409724855268
 30
0.0
 10
226.5741131172217
 20
-700.4155447801895
 30
0.0
 10
257.8260276572764
 20
-710.3587868431096
 30
0.0
 10
279.5949649932454
 20
-707.4598351078603
 30
0.0
 10
282.5186861877664
 20
-707.0705126525972
 30
0.0
 10
286.0114882784819
 20
-708.7404469855173
 30
0.0
 10
288.8358746913209
 20
-710.2263062082529
 30
0.0
 10
297.8656787074779
 20
-714.9771090519826
 30
0.0
 10
306.1872406330294
 20
-721.8102936977339
 30
0.0
 10
315.7323213465079
 20
-724.6829343061218
 30
0.0
 10
332.3908104845859
 20
-729.6964373070987
 30
0.0
 10
348.3603283769271
 20
-724.9879789331608
 30
0.0
 10
363.119585822611
 20
-715.6410538938508
 30
0.0
 10
364.6915728746799
 20
-717.1374992340316
 30
0.0
 10
366.0834931522977
 20
-718.4625111382666
 30
0.0
 10
367.4753620409956
 20
-719.7875230425016
 30
0.0
 10
375.2971153340404
 20
-727.2335719439907
 30
0.0
 10
382.9308365700863
 20
-733.5412534974093
 30
0.0
 10
395.4420343367974
 20
-731.5379078538062
 30
0.0
 10
420.386010378832
 20
-727.5436526851554
 30
0.0
 10
448.2793506862936
 20
-702.391654296378
 30
0.0
 10
452.8172492359136
 20
-677.4733213252475
 30
0.0
 10
453.8783790377511
 20
-671.6466914486628
 30
0.0
 10
456.877128054959
 20
-665.0826819640351
 30
0.0
 10
450.5234020295338
 20
-657.8859721006847
 30
0.0
 10
446.5026301783428
 20
-665.4561766320439
 30
0.0
 10
443.5243853400743
 20
-672.0219333399436
 30
0.0
 10
439.7123038915779
 20
-678.0614161217127
 30
0.0
  0
INSERT
  5
45
330
1F
100
AcDbEntity
  8
Layer 1
100
AcDbBlockReference
  2
block 2
 10
0.0
 20
0.0
 30
0.0
  0
SPLINE
  5
4A
330
1F
100
AcDbEntity
  8
Layer 1
370
     0
100
AcDbSpline
210
0.0
220
0.0
230
1.0
 70
    11
 71
     3
 72
    23
 73
    19
 74
     0
 42
0.0000000001
 43
0.0000000001
 12
1.0
 22
0.0
 32
0.0
 13
1.0
 23
0.0
 33
0.0
 40
0.0
 40
0.0
 40
0.0
 40
0.0
 40
1.0
 40
1.0
 40
1.0
 40
2.0
 40
2.0
 40
2.0
 40
3.0
 40
3.0
 40
3.0
 40
4.0
 40
4.0
 40
4.0
 40
5.0
 40
5.0
 40
5.0
 40
6.0
 40
6.0
 40
6.0
 40
6.0
 10
573.0442475900854
 20
-308.4053462424727
 30
0.0
 10
571.8753038348259
 20
-295.2563092050768
 30
0.0
 10
561.1407237982276
 20
-282.2452000280191
 30
0.0
 10
550.1387672126948
 20
-280.5379573394339
 30
0.0
 10
539.1632759207787
 20
-278.8347229865813
 30
0.0
 10
524.0743071666257
 20
-282.9971227003261
 30
0.0
 10
517.9860563001093
 20
-298.8233682846858
 30
0.0
 10
512.7479837202663
 20
-312.4399931019698
 30
0.0
 10
513.5285814097406
 20
-325.932462289381
 30
0.0
 10
519.2174889816633
 20
-338.9137145041223
 30
0.0
 10
526.7017712393681
 20
-355.9914858376178
 30
0.0
 10
554.0411903819331
 20
-359.0762599063191
 30
0.0
 10
565.0065066677562
 20
-344.2523038107975
 30
0.0
 10
571.31963544666
 20
-335.7175806465411
 30
0.0
 10
574.5963471302493
 20
-325.9931526034861
 30
0.0
 10
573.0722031623736
 20
-313.1686365936748
 30
0.0
 10
573.0722031623736
 20
-312.8880530923907
 30
0.0
 10
573.2420435418135
 20
-310.6303836854431
 30
0.0
 10
573.0442475900854
 20
-308.4053462424727
 30
0.0
  0
SPLINE
  5
4B
330
1F
100
AcDbEntity
  8
Layer 1
370
     0
100
AcDbSpline
210
0.0
220
0.0
230
1.0
 70
    11
 71
     3
 72
    20
 73
    16
 74
     0
 42
0.0000000001
 43
0.0000000001
 12
1.0
 22
0.0
 32
0.0
 13
1.0
 23
0.0
 33
0.0
 40
0.0
 40
0.0
 40
0.0
 40
0.0
 40
1.0
 40
1.0
 40
1.0
 40
2.0
 40
2.0
 40
2.0
 40
3.0
 40
3.0
 40
3.0
 40
4.0
 40
4.0
 40
4.0
 40
5.0
 40
5.0
 40
5.0
 40
5.0
 10
378.0185697408215
 20
-376.1370728963302
 30
0.0
 10
397.4964091776119
 20
-382.438536390473
 30
0.0
 10
415.6390617040779
 20
-372.2764803076852
 30
0.0
 10
414.5760819011348
 20
-350.0323753261782
 30
0.0
 10
413.9658384803006
 20
-337.2630510160707
 30
0.0
 10
408.0250224242563
 20
-326.7399363838285
 30
0.0
 10
398.705590456957
 20
-318.8608844453756
 30
0.0
 10
390.4395285646269
 20
-311.8724024844441
 30
0.0
 10
380.8831422888252
 20
-306.0891962449641
 30
0.0
 10
368.833879520841
 20
-310.4725683132001
 30
0.0
 10
356.3834748460758
 20
-315.0019876910792
 30
0.0
 10
349.4623123698848
 20
-323.14790228927
 30
0.0
 10
350.4711282515182
 20
-335.7993918066222
 30
0.0
 10
350.2988212039336
 20
-353.5218885260374
 30
0.0
 10
362.2176075049283
 20
-371.0250573363883
 30
0.0
 10
378.0185697408215
 20
-376.1370728963302
 30
0.0
  0
SPLINE
  5
4C
330
1F
100
AcDbEntity
  8
Layer 1
370
     0
100
AcDbSpline
210
0.0
220
0.0
230
1.0
 70
    11
 71
     3
 72
    23
 73
    19
 74
     0
 42
0.0000000001
 43
0.0000000001
 12
1.0
 22
0.0
 32
0.0
 13
1.0
 23
0.0
 33
0.0
 40
0.0
 40
0.0
 40
0.0
 40
0.0
 40
1.0
 40
1.0
 40
1.0
 40
2.0
 40
2.0
 40
2.0
 40
3.0
 40
3.0
 40
3.0
 40
4.0
 40
4.0
 40
4.0
 40
5.0
 40
5.0
 40
5.0
 40
6.0
 40
6.0
 40
6.0
 40
6.0
 10
616.1846289685418
 20
-316.6282414422976
 30
0.0
 10
614.5671113336612
 20
-309.4335871357325
 30
0.0
 10
612.7921894378997
 20
-301.05806684455
 30
0.0
 10
604.3078788038183
 20
-300.2723816520338
 30
0.0
 10
599.0619437192727
 20
-299.7865508056702
 30
0.0
 10
591.9178047207206
 20
-302.4074884856182
 30
0.0
 10
588.2053663874249
 20
-306.1753240742964
 30
0.0
 10
578.9277650007207
 20
-315.5912130437773
 30
0.0
 10
579.5004945102119
 20
-334.0825907789822
 30
0.0
 10
587.9322342794912
 20
-344.3159232933231
 30
0.0
 10
591.5358822698872
 20
-348.6895828557454
 30
0.0
 10
595.7645736899794
 20
-350.1649073499539
 30
0.0
 10
601.2959228342588
 20
-347.6106210987909
 30
0.0
 10
612.5060045443715
 20
-342.4338555000913
 30
0.0
 10
615.667450881192
 20
-332.8851261733171
 30
0.0
 10
616.0142233109837
 20
-321.6500180593357
 30
0.0
 10
616.0921289131729
 20
-319.9713476100751
 30
0.0
 10
616.5401375146721
 20
-318.2094784999026
 30
0.0
 10
616.1846289685418
 20
-316.6282414422976
 30
0.0
  0
SPLINE
  5
4D
330
1F
100
AcDbEntity
  8
Layer 1
370
     0
100
AcDbSpline
210
0.0
220
0.0
230
1.0
 70
    11
 71
     3
 72
    17
 73
    13
 74
     0
 42
0.0000000001
 43
0.0000000001
 12
1.0
 22
0.0
 32
0.0
 13
1.0
 23
0.0
 33
0.0
 40
0.0
 40
0.0
 40
0.0
 40
0.0
 40
1.0
 40
1.0
 40
1.0
 40
2.0
 40
2.0
 40
2.0
 40
3.0
 40
3.0
 40
3.0
 40
4.0
 40
4.0
 40
4.0
 40
4.0
 10
365.9309708387782
 20
-387.2440684336261
 30
0.0
 10
363.0336121600376
 20
-375.7188184793058
 30
0.0
 10
350.5409657933214
 20
-364.9154286792973
 30
0.0
 10
339.1469117508641
 20
-364.0815920690693
 30
0.0
 10
329.9192090051392
 20
-363.4063416648787
 30
0.0
 10
322.59484906538
 20
-369.9537011395423
 30
0.0
 10
323.2504689022644
 20
-378.2917589083008
 30
0.0
 10
324.1835889052536
 20
-390.1577687888157
 30
0.0
 10
339.7562815600641
 20
-404.9606040383624
 30
0.0
 10
351.5322066644339
 20
-405.1753069446568
 30
0.0
 10
364.145257269889
 20
-405.4052723600871
 30
0.0
 10
368.9822907207881
 20
-399.3816173655678
 30
0.0
 10
365.9309708387782
 20
-387.2440684336261
 30
0.0
  0
SPLINE
  5
4E
330
1F
100
AcDbEntity
  8
Layer 1
370
     0
100
AcDbSpline
210
0.0
220
0.0
230
1.0
 70
    11
 71
     3
 72
    20
 73
    16
 74
     0
 42
0.0000000001
 43
0.0000000001
 12
1.0
 22
0.0
 32
0.0
 13
1.0
 23
0.0
 33
0.0
 40
0.0
 40
0.0
 40
0.0
 40
0.0
 40
1.0
 40
1.0
 40
1.0
 40
2.0
 40
2.0
 40
2.0
 40
3.0
 40
3.0
 40
3.0
 40
4.0
 40
4.0
 40
4.0
 40
5.0
 40
5.0
 40
5.0
 40
5.0
 10
645.631610483757
 20
-318.0185686634068
 30
0.0
 10
641.1834883767624
 20
-316.8772721469177
 30
0.0
 10
633.6154421800275
 20
-318.5888315047532
 30
0.0
 10
630.9256433477494
 20
-321.8788015296141
 30
0.0
 10
625.6643943651434
 20
-328.3141331594416
 30
0.0
 10
621.8479448584803
 20
-336.4290602390838
 30
0.0
 10
619.3175544549522
 20
-344.443521980812
 30
0.0
 10
617.2367143205192
 20
-351.0343050925794
 30
0.0
 10
621.3237264891359
 20
-355.9838288885903
 30
0.0
 10
628.4149349004474
 20
-357.78994385858
 30
0.0
 10
640.6012519171345
 20
-360.893783216472
 30
0.0
 10
655.2667245844605
 20
-347.3723820672976
 30
0.0
 10
655.5528067001469
 20
-331.6718851693186
 30
0.0
 10
656.3951738710348
 20
-324.9729283816914
 30
0.0
 10
651.7813224981728
 20
-319.5964654412346
 30
0.0
 10
645.631610483757
 20
-318.0185686634068
 30
0.0
  0
SPLINE
  5
4F
330
1F
100
AcDbEntity
  8
Layer 1
370
     0
100
AcDbSpline
210
0.0
220
0.0
230
1.0
 70
    11
 71
     3
 72
    20
 73
    16
 74
     0
 42
0.0000000001
 43
0.0000000001
 12
1.0
 22
0.0
 32
0.0
 13
1.0
 23
0.0
 33
0.0
 40
0.0
 40
0.0
 40
0.0
 40
0.0
 40
1.0
 40
1.0
 40
1.0
 40
2.0
 40
2.0
 40
2.0
 40
3.0
 40
3.0
 40
3.0
 40
4.0
 40
4.0
 40
4.0
 40
5.0
 40
5.0
 40
5.0
 40
5.0
 10
346.3570855111629
 20
-418.0307076951758
 30
0.0
 10
341.833318914445
 20
-410.1687682669653
 30
0.0
 10
324.5294363344929
 20
-402.6039081832496
 30
0.0
 10
315.5199309415984
 20
-404.3808856357973
 30
0.0
 10
305.4799749318972
 20
-406.3611062655618
 30
0.0
 10
300.9396097141325
 20
-415.6311534810775
 30
0.0
 10
305.6050555623233
 20
-424.6240602529251
 30
0.0
 10
309.3892328274505
 20
-431.918203507932
 30
0.0
 10
325.7739731905567
 20
-439.6388747960227
 30
0.0
 10
333.6800043118255
 20
-437.8533153938952
 30
0.0
 10
342.1155982500786
 20
-435.9481225868185
 30
0.0
 10
348.1460365819903
 20
-429.9440981596053
 30
0.0
 10
347.9629378612799
 20
-422.882746710613
 30
0.0
 10
347.5872334697251
 20
-421.7022404484305
 30
0.0
 10
347.3036694111006
 20
-419.675718402068
 30
0.0
 10
346.3570855111629
 20
-418.0307076951758
 30
0.0
  0
SPLINE
  5
50
330
1F
100
AcDbEntity
  8
Layer 1
370
     0
100
AcDbSpline
210
0.0
220
0.0
230
1.0
 70
    11
 71
     3
 72
    23
 73
    19
 74
     0
 42
0.0000000001
 43
0.0000000001
 12
1.0
 22
0.0
 32
0.0
 13
1.0
 23
0.0
 33
0.0
 40
0.0
 40
0.0
 40
0.0
 40
0.0
 40
1.0
 40
1.0
 40
1.0
 40
2.0
 40
2.0
 40
2.0
 40
3.0
 40
3.0
 40
3.0
 40
4.0
 40
4.0
 40
4.0
 40
5.0
 40
5.0
 40
5.0
 40
6.0
 40
6.0
 40
6.0
 40
6.0
 10
327.0679461873233
 20
-465.7557515401313
 30
0.0
 10
330.7464164447319
 20
-463.0542360341751
 30
0.0
 10
335.886284799124
 20
-458.6226097703875
 30
0.0
 10
335.6357638158343
 20
-455.2960508347387
 30
0.0
 10
335.3635053195321
 20
-451.6816111712105
 30
0.0
 10
329.896186769136
 20
-448.1284270999095
 30
0.0
 10
326.1545595294792
 20
-445.2498767657598
 30
0.0
 10
324.3838001362074
 20
-443.8875051169416
 30
0.0
 10
321.3671163860408
 20
-443.834471751863
 30
0.0
 10
318.895669073353
 20
-443.7499369790385
 30
0.0
 10
310.7415322480183
 20
-443.471049312102
 30
0.0
 10
301.1727612425811
 20
-450.094875499206
 30
0.0
 10
300.9907930781037
 20
-455.906294255572
 30
0.0
 10
300.7772721169613
 20
-462.7228802802783
 30
0.0
 10
307.618113711741
 20
-468.5518226582462
 30
0.0
 10
318.2371714569681
 20
-468.6633880028021
 30
0.0
 10
319.8331057455925
 20
-468.1842377159956
 30
0.0
 10
324.1387263784
 20
-467.9070458834067
 30
0.0
 10
327.0679461873233
 20
-465.7557515401313
 30
0.0
  0
SPLINE
  5
51
330
1F
100
AcDbEntity
  8
Layer 1
370
     0
100
AcDbSpline
210
0.0
220
0.0
230
1.0
 70
    11
 71
     3
 72
    17
 73
    13
 74
     0
 42
0.0000000001
 43
0.0000000001
 12
1.0
 22
0.0
 32
0.0
 13
1.0
 23
0.0
 33
0.0
 40
0.0
 40
0.0
 40
0.0
 40
0.0
 40
1.0
 40
1.0
 40
1.0
 40
2.0
 40
2.0
 40
2.0
 40
3.0
 40
3.0
 40
3.0
 40
4.0
 40
4.0
 40
4.0
 40
4.0
 10
668.7163354128825
 20
-344.8678402903552
 30
0.0
 10
660.3165595516257
 20
-347.2122541936715
 30
0.0
 10
653.572945792821
 20
-352.3292030898992
 30
0.0
 10
651.0343331621516
 20
-361.1120833471414
 30
0.0
 10
649.5462642158709
 20
-366.2602767065164
 30
0.0
 10
650.4942870055602
 20
-371.3517880875179
 30
0.0
 10
656.3768794156422
 20
-373.580731088382
 30
0.0
 10
665.5694835292452
 20
-377.0638206732838
 30
0.0
 10
680.6464272762023
 20
-366.9908215882488
 30
0.0
 10
681.1906873242042
 20
-357.1775421031207
 30
0.0
 10
681.6649042747267
 20
-348.6276078186484
 30
0.0
 10
676.1657245941497
 20
-342.7886959902689
 30
0.0
 10
668.7163354128825
 20
-344.8678402903552
 30
0.0
  0
SPLINE
  5
52
330
1F
100
AcDbEntity
  8
Layer 1
370
     0
100
AcDbSpline
210
0.0
220
0.0
230
1.0
 70
    11
 71
     3
 72
    17
 73
    13
 74
     0
 42
0.0000000001
 43
0.0000000001
 12
1.0
 22
0.0
 32
0.0
 13
1.0
 23
0.0
 33
0.0
 40
0.0
 40
0.0
 40
0.0
 40
0.0
 40
1.0
 40
1.0
 40
1.0
 40
2.0
 40
2.0
 40
2.0
 40
3.0
 40
3.0
 40
3.0
 40
4.0
 40
4.0
 40
4.0
 40
4.0
 10
687.3018576488867
 20
-399.7874870529567
 30
0.0
 10
693.8490629567896
 20
-400.0852344534042
 30
0.0
 10
699.6589914344877
 20
-394.3541879673694
 30
0.0
 10
700.1542778420662
 20
-387.1092752973864
 30
0.0
 10
700.6042392225172
 20
-380.527588024398
 30
0.0
 10
695.8838586192214
 20
-373.8088978916239
 30
0.0
 10
690.4739928809904
 20
-373.3310837167264
 30
0.0
 10
685.2445536396517
 20
-372.8692001069194
 30
0.0
 10
676.4245191935042
 20
-382.3553891184802
 30
0.0
 10
676.0786717642623
 20
-388.8136915953919
 30
0.0
 10
675.7586729616087
 20
-394.7896062835562
 30
0.0
 10
680.5563938889754
 20
-399.4806952026529
 30
0.0
 10
687.3018576488867
 20
-399.7874870529567
 30
0.0
  0
SPLINE
  5
53
330
1F
100
AcDbEntity
  8
Layer 1
370
     0
100
AcDbSpline
210
0.0
220
0.0
230
1.0
 70
    11
 71
     3
 72
    17
 73
    13
 74
     0
 42
0.0000000001
 43
0.0000000001
 12
1.0
 22
0.0
 32
0.0
 13
1.0
 23
0.0
 33
0.0
 40
0.0
 40
0.0
 40
0.0
 40
0.0
 40
1.0
 40
1.0
 40
1.0
 40
2.0
 40
2.0
 40
2.0
 40
3.0
 40
3.0
 40
3.0
 40
4.0
 40
4.0
 40
4.0
 40
4.0
 10
333.2623665618366
 20
-490.4181676914122
 30
0.0
 10
333.0976136854406
 20
-484.7413879045234
 30
0.0
 10
326.902165532535
 20
-480.0124767405687
 30
0.0
 10
319.2285664948404
 20
-479.7063529462175
 30
0.0
 10
311.9066732232241
 20
-479.4143097158521
 30
0.0
 10
307.4348094353527
 20
-483.0143604818732
 30
0.0
 10
307.3103454719621
 20
-489.3012809117536
 30
0.0
 10
307.1521189883624
 20
-497.2882495814702
 30
0.0
 10
312.3097679089524
 20
-503.1108197334033
 30
0.0
 10
319.7100292830337
 20
-503.2997254020338
 30
0.0
 10
325.4576743901162
 20
-503.4464407676314
 30
0.0
 10
333.4207986011143
 20
-495.8774695703432
 30
0.0
 10
333.2623665618366
 20
-490.4181676914122
 30
0.0
  0
HATCH
  5
54
330
1F
100
AcDbEntity
  8
Layer 1
 62
     7
420
 16777215
100
AcDbHatch
 10
0.0
 20
0.0
 30
0.0
210
0.0
220
0.0
230
1.0
  2
SOLID
 70
     1
 71
     0
 91
       15
 92
        1
 93
        1
 72
     4
 94
        3
 73
     0
 74
     1
 95
      209
 96
      205
 40
0.0
 40
0.0
 40
0.0
 40
0.0
 40
1.0
 40
1.0
 40
1.0
 40
2.0
 40
2.0
 40
2.0
 40
3.0
 40
3.0
 40
3.0
 40
4.0
 40
4.0
 40
4.0
 40
5.0
 40
5.0
 40
5.0
 40
6.0
 40
6.0
 40
6.0
 40
7.0
 40
7.0
 40
7.0
 40
8.0
 40
8.0
 40
8.0
 40
9.0
 40
9.0
 40
9.0
 40
10.0
 40
10.0
 40
10.0
 40
11.0
 40
11.0
 40
11.0
 40
12.0
 40
12.0
 40
12.0
 40
13.0
 40
13.0
 40
13.0
 40
14.0
 40
14.0
 40
14.0
 40
15.0
 40
15.0
 40
15.0
 40
16.0
 40
16.0
 40
16.0
 40
17.0
 40
17.0
 40
17.0
 40
18.0
 40
18.0
 40
18.0
 40
19.0
 40
19.0
 40
19.0
 40
20.0
 40
20.0
 40
20.0
 40
21.0
 40
21.0
 40
21.0
 40
22.0
 40
22.0
 40
22.0
 40
23.0
 40
23.0
 40
23.0
 40
24.0
 40
24.0
 40
24.0
 40
25.0
 40
25.0
 40
25.0
 40
26.0
 40
26.0
 40
26.0
 40
27.0
 40
27.0
 40
27.0
 40
28.0
 40
28.0
 40
28.0
 40
29.0
 40
29.0
 40
29.0
 40
30.0
 40
30.0
 40
30.0
 40
31.0
 40
31.0
 40
31.0
 40
32.0
 40
32.0
 40
32.0
 40
33.0
 40
33.0
 40
33.0
 40
34.0
 40
34.0
 40
34.0
 40
35.0
 40
35.0
 40
35.0
 40
36.0
 40
36.0
 40
36.0
 40
37.0
 40
37.0
 40
37.0
 40
38.0
 40
38.0
 40
38.0
 40
39.0
 40
39.0
 40
39.0
 40
40.0
 40
40.0
 40
40.0
 40
41.0
 40
41.0
 40
41.0
 40
42.0
 40
42.0
 40
42.0
 40
43.0
 40
43.0
 40
43.0
 40
44.0
 40
44.0
 40
44.0
 40
45.0
 40
45.0
 40
45.0
 40
46.0
 40
46.0
 40
46.0
 40
47.0
 40
47.0
 40
47.0
 40
48.0
 40
48.0
 40
48.0
 40
49.0
 40
49.0
 40
49.0
 40
50.0
 40
50.0
 40
50.0
 40
51.0
 40
51.0
 40
51.0
 40
52.0
 40
52.0
 40
52.0
 40
53.0
 40
53.0
 40
53.0
 40
54.0
 40
54.0
 40
54.0
 40
55.0
 40
55.0
 40
55.0
 40
56.0
 40
56.0
 40
56.0
 40
57.0
 40
57.0
 40
57.0
 40
58.0
 40
58.0
 40
58.0
 40
59.0
 40
59.0
 40
59.0
 40
60.0
 40
60.0
 40
60.0
 40
61.0
 40
61.0
 40
61.0
 40
62.0
 40
62.0
 40
62.0
 40
63.0
 40
63.0
 40
63.0
 40
64.0
 40
64.0
 40
64.0
 40
65.0
 40
65.0
 40
65.0
 40
66.0
 40
66.0
 40
66.0
 40
67.0
 40
67.0
 40
67.0
 40
68.0
 40
68.0
 40
68.0
 40
68.0
 10
793.6694699293512
 20
-566.7686897820713
 10
795.2209014135587
 20
-590.2390371642468
 10
780.1877924150649
 20
-597.5776318347489
 10
760.8431530580056
 20
-601.5355036482906
 10
736.6418496827391
 20
-606.4870316121669
 10
706.26647594514
 20
-595.1223206428294
 10
692.6415261228758
 20
-574.9363418932735
 10
691.0117779251195
 20
-572.521833503557
 10
690.1312801758504
 20
-569.601503977734
 10
688.9034961075922
 20
-566.9156620922695
 10
689.4506339350992
 20
-566.3044936708793
 10
689.9978231515233
 20
-565.6933252494928
 10
690.5449609790267
 20
-565.0821568281062
 10
694.6499078806046
 20
-567.5132638388677
 10
698.7529020032343
 20
-569.9477625183281
 10
702.8603155729543
 20
-572.3748098044416
 10
722.2285938330533
 20
-583.8196874884306
 10
742.8532284007342
 20
-590.3585164024298
 10
765.2299167949386
 20
-584.4503836992844
 10
771.9073930141531
 20
-582.68733264396
 10
778.2352190240745
 20
-577.3113322037789
 10
783.2226164538661
 20
-572.1426346654662
 10
787.3887161698258
 20
-567.8251945811389
 10
786.1144765182071
 20
-563.0862111889292
 10
779.0172556032958
 20
-561.1685822633008
 10
764.5948525259118
 20
-557.2715549306267
 10
754.9913939997132
 20
-547.4377712665555
 10
748.5468123643477
 20
-534.3965481825835
 10
746.8987697111988
 20
-531.061715630869
 10
746.4439777723019
 20
-527.1372980040214
 10
746.2469526543682
 20
-522.3454354134956
 10
769.3841970593785
 20
-548.0271507860125
 10
796.7451995481933
 20
-552.634321599322
 10
827.3353789699249
 20
-540.4666587604661
 10
835.7459978932275
 20
-537.1211887023856
 10
841.7003292351401
 20
-527.8599803810466
 10
842.7991271150786
 20
-519.2757696871704
 10
821.7629700788457
 20
-519.4528045153602
 10
800.43286842222
 20
-519.9079047877749
 10
784.2114420457583
 20
-503.3022434590966
 10
781.7585461330636
 20
-500.7912266782769
 10
780.8221372392145
 20
-496.7989242885706
 10
779.8540727708641
 20
-492.5643745316411
 10
807.8279395154168
 20
-513.0232284445337
 10
835.0687947100923
 20
-507.2616055513063
 10
861.8768524234802
 20
-491.9207283130345
 10
876.909961421974
 20
-483.3180176080823
 10
887.8410012983913
 20
-469.6168580179728
 10
888.7448296171824
 20
-453.0810856200187
 10
862.0826136577562
 20
-472.3819416175393
 10
833.178401911875
 20
-475.6752005332564
 10
802.8103254008674
 20
-470.0755041258417
 10
802.6133002829338
 20
-469.1539980186935
 10
802.4162751650001
 20
-468.2324919115454
 10
802.2192500470628
 20
-467.3110371933144
 10
808.3639259473566
 20
-466.1006225798992
 10
814.4670796005703
 20
-464.5925119549538
 10
820.6600610853347
 20
-463.7285100488916
 10
859.010481263289
 20
-458.3781526796156
 10
887.073867505871
 20
-437.1505205287722
 10
908.6398443036851
 20
-406.3223590201451
 10
915.0132008964174
 20
-397.2117202333802
 10
917.4230328944468
 20
-386.4936874289097
 10
916.0018209326263
 20
-373.6816075376537
 10
892.5770041332617
 20
-397.818777541198
 10
867.3802973843922
 20
-417.2682502943426
 10
832.3965708883334
 20
-418.8160331652543
 10
856.2639490637193
 20
-405.9399226801143
 10
878.17053162097
 20
-390.5912857149751
 10
895.1000973101982
 20
-369.35640772646
 10
912.1353186182241
 20
-347.9888435474104
 10
924.0803646571585
 20
-324.4895128145517
 10
922.2268691032514
 20
-293.439865062237
 10
911.5181376932378
 20
-312.3557152737449
 10
901.6947345909393
 20
-328.9348599198847
 10
885.8172028647678
 20
-341.0067852014345
 10
870.4713409012911
 20
-352.674588018861
 10
855.0051260879918
 20
-363.6517237562039
 10
836.1552592493135
 20
-368.1619236781344
 10
835.766553461086
 20
-367.4803010479072
 10
835.3779504507002
 20
-366.7987298066
 10
834.9892446624726
 20
-366.1171585652937
 10
845.708356634259
 20
-357.4269325301784
 10
856.9039466690301
 20
-349.2553748610826
 10
867.04626940667
 20
-339.9374845613729
 10
887.5124205461543
 20
-321.1348441398522
 10
904.4549362431353
 20
-299.3161880241214
 10
911.583401621192
 20
-272.1408537019979
 10
918.2876000786237
 20
-246.5829085424539
 10
913.6070972769776
 20
-221.2237871130319
 10
904.5550418586099
 20
-196.7589613578057
 10
903.693866343132
 20
-196.7478099622413
 10
902.8326908276504
 20
-196.7366585666778
 10
901.9715153121688
 20
-196.7255071711133
 10
901.9715153121688
 20
-203.0813144477852
 10
902.0636042561782
 20
-209.4386633920449
 10
901.9553791913968
 20
-215.7925949731489
 10
901.4968872502868
 20
-242.7150701161381
 10
891.2542533414926
 20
-266.4679280840865
 10
877.4729784256524
 20
-288.8489331475375
 10
855.5026736080363
 20
-324.5289281159221
 10
826.7432758377254
 20
-353.5319093653688
 10
789.7644259252083
 20
-373.5750783072208
 10
769.8801001339925
 20
-384.3526708695654
 10
748.9734431752768
 20
-393.229798405443
 10
728.9178895037876
 20
-403.7103630122147
 10
716.0729207039549
 20
-410.422732307874
 10
703.9557217841975
 20
-418.5242468794859
 10
691.4803420944809
 20
-425.9492777128398
 10
683.672566587582
 20
-430.5962235499537
 10
679.9504671373907
 20
-437.0894704922284
 10
682.2919518722883
 20
-446.2317134645782
 10
685.4946635115848
 20
-458.7361278938952
 10
681.1385789596825
 20
-470.3072167645405
 10
676.3567885974044
 20
-481.0601426454559
 10
667.7540778924522
 20
-500.4053986695508
 10
661.5782603068546
 20
-519.5996740477167
 10
661.6032867107206
 20
-541.35676623771
 10
661.6235853339822
 20
-558.9642031660296
 10
656.4329961158983
 20
-576.3982538794517
 10
647.3406517845287
 20
-592.1078980051279
 10
631.8309105562876
 20
-618.9055751567503
 10
599.0737631707889
 20
-619.0582002481096
 10
580.5655298699385
 20
-608.9070900052066
 10
556.3116556298737
 20
-595.6046570426588
 10
548.4350703595628
 20
-570.4737281109374
 10
554.5747101457309
 20
-541.7257386807905
 10
557.4113785103655
 20
-528.4433987858247
 10
561.8493770001878
 20
-514.2566652939531
 10
559.6532715189824
 20
-501.4968479339805
 10
557.4630243746142
 20
-488.7714611501724
 10
548.9461331654747
 20
-476.5832941323752
 10
541.2824521892726
 20
-465.4859597119757
 10
530.7827195154714
 20
-450.2818797778091
 10
521.858673895953
 20
-434.7988093988643
 10
520.080103386892
 20
-416.111434324117
 10
519.5285461122985
 20
-410.3167683555585
 10
519.5200155516359
 20
-404.3971759233282
 10
519.9847255520253
 20
-398.5925405043545
 10
521.4587653232411
 20
-380.1808669835245
 10
533.1378223140746
 20
-369.9601247544988
 10
548.9420734408232
 20
-362.9517038927424
 10
589.8928243419468
 20
-344.7919388560331
 10
634.7385470189583
 20
-362.9769358522908
 10
658.1586874266359
 20
-389.4749642134384
 10
665.2789305775514
 20
-397.5309482022431
 10
671.3210855831421
 20
-406.5398883170201
 10
678.391995371192
 20
-415.814098035029
 10
704.7699278271175
 20
-390.2535063461228
 10
740.1262239906318
 20
-378.3273714296183
 10
771.7134512313969
 20
-360.0007979597276
 10
804.9346405613251
 20
-340.7260989223096
 10
833.9683523847234
 20
-317.2380223628552
 10
857.1122773492862
 20
-285.8091243835297
 10
876.5441750919126
 20
-259.4212481716504
 10
889.6543107171346
 20
-231.1827541853654
 10
895.3206585533298
 20
-199.2062044893391
 10
895.9515089309461
 20
-195.6461086083427
 10
895.8107032911066
 20
-191.9534036201912
 10
896.1071145796413
 20
-188.328711867196
 10
896.3925286393751
 20
-184.8391472784178
 10
896.7806177605635
 20
-181.3580361669219
 10
897.123587410304
 20
-177.8731993587517
 10
897.9926768194091
 20
-177.5426658275683
 10
898.8617662285178
 20
-177.2121322963849
 10
899.7309584154646
 20
-176.8815987652024
 10
905.0843477309973
 20
-185.0229397495432
 10
911.0434068535178
 20
-192.8361624819254
 10
915.6683068441052
 20
-201.3722731470116
 10
926.0897741932822
 20
-220.60737702184
 10
932.5549113965062
 20
-240.9368336350581
 10
928.9838953700819
 20
-263.2432476816393
 10
926.6247328468271
 20
-277.9802794195748
 10
930.5012046116462
 20
-292.1598698516154
 10
933.3639785474625
 20
-306.2176171551673
 10
937.4152754169263
 20
-326.111398507599
 10
931.7813026001058
 20
-343.7611285167895
 10
924.3880815080192
 20
-361.5500197203919
 10
922.8435361390402
 20
-365.26662055618
 10
922.717427730222
 20
-370.0464067505891
 10
923.354547556035
 20
-374.1143022410997
 10
926.1455825600206
 20
-391.9339754075709
 10
926.5534050263559
 20
-409.488378970811
 10
916.9200381489209
 20
-425.4937663290693
 10
913.4180888305054
 20
-431.3120198117504
 10
908.1580217930532
 20
-436.1796810587584
 10
903.2305438435724
 20
-441.0012978337618
 10
898.5878632867862
 20
-445.5442838864292
 10
895.9839867281626
 20
-449.5424960018936
 10
897.4317153725206
 20
-457.0026254673685
 10
901.267076001619
 20
-476.7654164636151
 10
893.9766327488251
 20
-492.6509134723274
 10
877.2026727082957
 20
-503.906525765251
 10
871.6405416011476
 20
-507.6386974436937
 10
865.6312241152118
 20
-510.7104187268014
 10
860.1203791498738
 20
-514.5102696124231
 10
857.767280519136
 20
-516.1328233614258
 10
854.7738759495696
 20
-518.6529873699401
 10
854.4348118577254
 20
-521.0935499419211
 10
850.1232814991599
 20
-552.134821300333
 10
827.6853375127357
 20
-563.2170473783553
 10
801.1961994346893
 20
-566.1745310930855
 10
799.0236814675991
 20
-566.4170867938301
 10
796.8360551581318
 20
-566.5228451904695
 10
793.6694699293512
 20
-566.7686897820713
 97
        0
 97
        0
 92
        1
 93
        1
 72
     4
 94
        3
 73
     0
 74
     1
 95
       38
 96
       34
 40
0.0
 40
0.0
 40
0.0
 40
0.0
 40
1.0
 40
1.0
 40
1.0
 40
2.0
 40
2.0
 40
2.0
 40
3.0
 40
3.0
 40
3.0
 40
4.0
 40
4.0
 40
4.0
 40
5.0
 40
5.0
 40
5.0
 40
6.0
 40
6.0
 40
6.0
 40
7.0
 40
7.0
 40
7.0
 40
8.0
 40
8.0
 40
8.0
 40
9.0
 40
9.0
 40
9.0
 40
10.0
 40
10.0
 40
10.0
 40
11.0
 40
11.0
 40
11.0
 40
11.0
 10
544.8998724101366
 20
-548.0116313322796
 10
538.6955853630534
 20
-533.22524053702
 10
527.0424797766427
 20
-522.5312063580241
 10
514.0290580982037
 20
-514.6412599686082
 10
494.382251893604
 20
-502.7296681163643
 10
483.8667428214703
 20
-486.8463294422727
 10
481.8884235817359
 20
-463.9230684986833
 10
480.2701351130627
 20
-445.1725364416889
 10
480.224039252138
 20
-425.669824767785
 10
468.8794213503834
 20
-409.1275259770337
 10
457.5622965206421
 20
-392.6252077657709
 10
445.2917530646491
 20
-377.3013402599026
 10
422.2306670385597
 20
-379.1991844514669
 10
406.1387407396132
 20
-380.5234769108274
 10
391.4953139188192
 20
-387.0276696929841
 10
379.7599860609735
 20
-397.2766758278167
 10
352.1964084509
 20
-421.3491985704422
 10
338.9063602179867
 20
-452.2160559355652
 10
343.9450437895894
 20
-489.0333390847045
 10
348.0999921099847
 20
-519.3938614245235
 10
362.0726907515182
 20
-543.4971147410979
 10
391.8638752505431
 20
-556.4857155713507
 10
409.0292646920407
 20
-563.9696381066206
 10
424.8751922326264
 20
-573.4101423686116
 10
437.4126497372772
 20
-588.4005471748787
 10
449.2020387385946
 20
-602.4964250568082
 10
465.3401636763065
 20
-611.659634708376
 10
482.3090932779842
 20
-618.7379958897727
 10
515.1040115194228
 20
-632.4179832449845
 10
550.0916435733743
 20
-602.9836947929216
 10
550.2806006309256
 20
-565.3943959038916
 10
548.5180120758778
 20
-559.5871396500188
 10
547.2356529749522
 20
-553.5783360532769
 10
544.8998724101366
 20
-548.0116313322796
 97
        0
 97
        0
 92
        1
 93
        1
 72
     4
 94
        3
 73
     0
 74
     1
 95
      161
 96
      157
 40
0.0
 40
0.0
 40
0.0
 40
0.0
 40
1.0
 40
1.0
 40
1.0
 40
2.0
 40
2.0
 40
2.0
 40
3.0
 40
3.0
 40
3.0
 40
4.0
 40
4.0
 40
4.0
 40
5.0
 40
5.0
 40
5.0
 40
6.0
 40
6.0
 40
6.0
 40
7.0
 40
7.0
 40
7.0
 40
8.0
 40
8.0
 40
8.0
 40
9.0
 40
9.0
 40
9.0
 40
10.0
 40
10.0
 40
10.0
 40
11.0
 40
11.0
 40
11.0
 40
12.0
 40
12.0
 40
12.0
 40
13.0
 40
13.0
 40
13.0
 40
14.0
 40
14.0
 40
14.0
 40
15.0
 40
15.0
 40
15.0
 40
16.0
 40
16.0
 40
16.0
 40
17.0
 40
17.0
 40
17.0
 40
18.0
 40
18.0
 40
18.0
 40
19.0
 40
19.0
 40
19.0
 40
20.0
 40
20.0
 40
20.0
 40
21.0
 40
21.0
 40
21.0
 40
22.0
 40
22.0
 40
22.0
 40
23.0
 40
23.0
 40
23.0
 40
24.0
 40
24.0
 40
24.0
 40
25.0
 40
25.0
 40
25.0
 40
26.0
 40
26.0
 40
26.0
 40
27.0
 40
27.0
 40
27.0
 40
28.0
 40
28.0
 40
28.0
 40
29.0
 40
29.0
 40
29.0
 40
30.0
 40
30.0
 40
30.0
 40
31.0
 40
31.0
 40
31.0
 40
32.0
 40
32.0
 40
32.0
 40
33.0
 40
33.0
 40
33.0
 40
34.0
 40
34.0
 40
34.0
 40
35.0
 40
35.0
 40
35.0
 40
36.0
 40
36.0
 40
36.0
 40
37.0
 40
37.0
 40
37.0
 40
38.0
 40
38.0
 40
38.0
 40
39.0
 40
39.0
 40
39.0
 40
40.0
 40
40.0
 40
40.0
 40
41.0
 40
41.0
 40
41.0
 40
42.0
 40
42.0
 40
42.0
 40
43.0
 40
43.0
 40
43.0
 40
44.0
 40
44.0
 40
44.0
 40
45.0
 40
45.0
 40
45.0
 40
46.0
 40
46.0
 40
46.0
 40
47.0
 40
47.0
 40
47.0
 40
48.0
 40
48.0
 40
48.0
 40
49.0
 40
49.0
 40
49.0
 40
50.0
 40
50.0
 40
50.0
 40
51.0
 40
51.0
 40
51.0
 40
52.0
 40
52.0
 40
52.0
 40
52.0
 10
439.7123038915779
 20
-678.0614161217127
 10
428.2296553516462
 20
-696.2532478442845
 10
414.5642624496149
 20
-711.8794877533692
 10
391.7498432378416
 20
-715.7078594893937
 10
383.3664604419528
 20
-717.1146825537107
 10
375.5363821439259
 20
-716.8285490491035
 10
370.4581804931131
 20
-708.0101076594619
 10
382.7345308970262
 20
-691.6311742442776
 10
391.3284027077989
 20
-674.4397306205174
 10
380.4275795161348
 20
-653.5538861742571
 10
375.919949040187
 20
-672.6185073081506
 10
367.3752050365993
 20
-688.7213280580618
 10
350.8752507156387
 20
-699.8292999848309
 10
332.308845157746
 20
-712.3284213554216
 10
311.5338980000897
 20
-713.4193053417366
 10
298.2173330846372
 20
-701.8668706489225
 10
301.7972393941582
 20
-699.1107801102953
 10
305.5151249529372
 20
-696.6918008845678
 10
308.7039101950086
 20
-693.7073893759443
 10
317.0329235139097
 20
-685.9126666546363
 10
325.8296273905371
 20
-678.4562885802989
 10
333.1178095308633
 20
-669.7573264288403
 10
339.986760864691
 20
-661.5586867990896
 10
340.1300845615924
 20
-652.1477825548172
 10
335.5917749006139
 20
-645.1064213955651
 10
321.3994400165002
 20
-675.546442394083
 10
296.8546531022994
 20
-688.7092002730242
 10
264.1913932730013
 20
-687.8118983470304
 10
249.8228971723302
 20
-687.4173342219619
 10
236.8895651251614
 20
-683.0592455021942
 10
226.3840511978988
 20
-673.177156253656
 10
241.6537290879978
 20
-668.8986175815044
 10
256.1192217745074
 20
-665.7506351416341
 10
269.9175578116701
 20
-660.7586640979935
 10
288.7863871616992
 20
-653.9322114007155
 10
302.2556799463482
 20
-642.8940256268288
 10
304.2646269821944
 20
-635.0563931576144
 10
299.9351618906703
 20
-637.0327596184034
 10
295.5178731354654
 20
-639.283491521197
 10
290.9305384451418
 20
-641.1062565011525
 10
254.2162386909777
 20
-655.6944916222456
 10
217.5602396661561
 20
-657.5145843783794
 10
181.0527032302007
 20
-640.3469338244176
 10
171.0169097229918
 20
-635.627632388434
 10
163.0303521646338
 20
-629.0357701093562
 10
159.1450158111766
 20
-617.0081934654627
 10
191.7942978543324
 20
-626.6241394991375
 10
222.6346899258342
 20
-627.9191916632153
 10
252.1222686875726
 20
-610.424604802447
 10
225.7311806682164
 20
-611.8034722944722
 10
199.5550011108317
 20
-610.7669577851484
 10
174.2608609703066
 20
-602.9283489264599
 10
148.3646996360912
 20
-594.9033010672865
 10
126.7095630626836
 20
-580.6668744901144
 10
111.2854357745791
 20
-555.6434511783009
 10
124.7965334453629
 20
-560.7688278573514
 10
136.4220945708394
 20
-566.3530048110297
 10
148.6735984321022
 20
-569.5013469733349
 10
161.3159407217572
 20
-572.7502058624777
 10
174.5163409843426
 20
-574.6475875537653
 10
187.5643987946278
 20
-575.2999184997898
 10
205.8701083631413
 20
-576.215000991986
 10
217.7566738115156
 20
-573.1679977792264
 10
224.5082271584042
 20
-568.0014071866171
 10
215.4449689555568
 20
-566.9734232379524
 10
206.872808963336
 20
-565.9195392737893
 10
198.282688543698
 20
-565.0411998591444
 10
165.0970346517051
 20
-561.6478867168698
 10
134.2872446818528
 20
-552.6768202358726
 10
108.7442793923856
 20
-529.588086971009
 10
88.57993537800212
 20
-511.361259394158
 10
77.58694615894728
 20
-488.7628278116717
 10
73.12975390763495
 20
-461.7442296944791
 10
74.42524287753167
 20
-462.5664524088643
 10
75.3128322977118
 20
-462.8417428514258
 10
75.74218672138068
 20
-463.4437640451142
 10
93.35275837379959
 20
-488.1380927154969
 10
114.8844844566693
 20
-508.2333186329524
 10
141.724480383622
 20
-522.9234579817094
 10
173.3699569648088
 20
-540.2437850159477
 10
207.2334820958931
 20
-549.9688811149572
 10
242.877427737144
 20
-549.6677934347317
 10
275.7708585375512
 20
-549.3899335461902
 10
308.6310920958658
 20
-545.0291212136799
 10
341.5024770497439
 20
-542.4239085431436
 10
348.3478922583727
 20
-541.8813443294894
 10
355.1785074581421
 20
-541.1511591701928
 10
363.3659443034094
 20
-540.3803253754559
 10
360.3521897216633
 20
-535.9926880268904
 10
357.5839713980013
 20
-533.1139835259819
 10
356.1860900057036
 20
-529.6777092468801
 10
353.6050301274045
 20
-523.3330276713132
 10
349.1609677450624
 20
-521.9548282352407
 10
342.9364334636348
 20
-522.567178601781
 10
331.7826226205379
 20
-523.664486203048
 10
320.5876492528023
 20
-524.3425629978192
 10
309.4104564512654
 20
-525.2025565681506
 10
284.0553690520355
 20
-527.1534341247898
 10
258.8978206599386
 20
-530.6840584603706
 10
233.205519169971
 20
-527.9640943322556
 10
205.162894050929
 20
-524.9953050552031
 10
177.9902833415472
 20
-519.3529558444825
 10
152.1364664771227
 20
-508.2357339121772
 10
120.3067092300726
 20
-494.5488090528124
 10
92.41819948105967
 20
-475.492101812546
 10
72.07859355621076
 20
-446.7021790239669
 10
71.1431096629176
 20
-445.3779893424435
 10
69.27085715333851
 20
-444.7155861681676
 10
66.67217087559857
 20
-442.9591128945576
 10
65.13086300856048
 20
-462.225075815637
 10
63.18550976078131
 20
-480.3119713642809
 10
70.98097762142424
 20
-497.048571660227
 10
78.49241892316604
 20
-513.1753910356165
 10
87.87896481952703
 20
-528.4285473880482
 10
96.4306206328074
 20
-544.0715400849367
 10
97.62096787310202
 20
-546.248991388311
 10
99.30516263122445
 20
-548.3388245836868
 10
99.81781849364415
 20
-550.6760440382495
 10
104.6077283052246
 20
-572.5128918315386
 10
116.3718853469954
 20
-589.8336299771327
 10
134.4961149457677
 20
-602.4712958751006
 10
143.5451898067922
 20
-608.7810329853055
 10
150.0705548238457
 20
-615.5330745269312
 10
154.286835819843
 20
-626.4392421662415
 10
163.2598293853271
 20
-649.6494588371534
 10
182.1628066724625
 20
-662.6283471615898
 10
205.759956213873
 20
-669.4146651126212
 10
209.5801828061331
 20
-670.5133088258008
 10
214.4730503182318
 20
-673.1639493013063
 10
215.914329653172
 20
-676.409724855268
 10
226.5741131172217
 20
-700.4155447801895
 10
257.8260276572764
 20
-710.3587868431096
 10
279.5949649932454
 20
-707.4598351078603
 10
282.5186861877664
 20
-707.0705126525972
 10
286.0114882784819
 20
-708.7404469855173
 10
288.8358746913209
 20
-710.2263062082529
 10
297.8656787074779
 20
-714.9771090519826
 10
306.1872406330294
 20
-721.8102936977339
 10
315.7323213465079
 20
-724.6829343061218
 10
332.3908104845859
 20
-729.6964373070987
 10
348.3603283769271
 20
-724.9879789331608
 10
363.119585822611
 20
-715.6410538938508
 10
364.6915728746799
 20
-717.1374992340316
 10
366.0834931522977
 20
-718.4625111382666
 10
367.4753620409956
 20
-719.7875230425016
 10
375.2971153340404
 20
-727.2335719439907
 10
382.9308365700863
 20
-733.5412534974093
 10
395.4420343367974
 20
-731.5379078538062
 10
420.386010378832
 20
-727.5436526851554
 10
448.2793506862936
 20
-702.391654296378
 10
452.8172492359136
 20
-677.4733213252475
 10
453.8783790377511
 20
-671.6466914486628
 10
456.877128054959
 20
-665.0826819640351
 10
450.5234020295338
 20
-657.8859721006847
 10
446.5026301783428
 20
-665.4561766320439
 10
443.5243853400743
 20
-672.0219333399436
 10
439.7123038915779
 20
-678.0614161217127
 97
        0
 97
        0
 92
        1
 93
        1
 72
     4
 94
        3
 73
     0
 74
     1
 95
       32
 96
       28
 40
0.0
 40
0.0
 40
0.0
 40
0.0
 40
1.0
 40
1.0
 40
1.0
 40
2.0
 40
2.0
 40
2.0
 40
3.0
 40
3.0
 40
3.0
 40
4.0
 40
4.0
 40
4.0
 40
5.0
 40
5.0
 40
5.0
 40
6.0
 40
6.0
 40
6.0
 40
7.0
 40
7.0
 40
7.0
 40
8.0
 40
8.0
 40
8.0
 40
9.0
 40
9.0
 40
9.0
 40
9.0
 10
581.0444746010689
 20
-143.7320455892623
 10
568.7803547600342
 20
-146.8257613299829
 10
558.9732933341838
 20
-152.9326663743332
 10
554.0343556556181
 20
-166.2124368233162
 10
548.4341967479304
 20
-181.2699812531037
 10
552.0097863882002
 20
-194.3099453085442
 10
559.4354852775068
 20
-206.9540091270073
 10
572.0647233926538
 20
-228.458319221244
 10
590.2510565008197
 20
-244.3032960668161
 10
611.9225347506763
 20
-256.2781733736074
 10
639.9020542763901
 20
-271.7386840168238
 10
667.9314210541634
 20
-287.2568016389669
 10
700.9781450018818
 20
-288.6052468905609
 10
716.3029375083061
 20
-289.2304958759332
 10
731.4575299128519
 20
-287.2758669281566
 10
744.2887264822166
 20
-278.1853212089754
 10
760.9201336596379
 20
-266.4024586004525
 10
764.075104992582
 20
-245.0957902911859
 10
753.1702734651844
 20
-223.7531754326246
 10
743.0608396361167
 20
-203.9674135892956
 10
727.1847467996995
 20
-189.6557793282163
 10
708.9859775729747
 20
-177.5743984854516
 10
677.4719281537909
 20
-156.6534811015317
 10
644.1666665513148
 20
-140.9273411326494
 10
605.1144278977117
 20
-141.0471030098925
 10
597.073346695608
 20
-141.871663920123
 10
588.8000389656045
 20
-141.7756694182181
 10
581.0444746010689
 20
-143.7320455892623
 97
        0
 97
        0
 92
        1
 93
        1
 72
     4
 94
        3
 73
     0
 74
     1
 95
       29
 96
       25
 40
0.0
 40
0.0
 40
0.0
 40
0.0
 40
1.0
 40
1.0
 40
1.0
 40
2.0
 40
2.0
 40
2.0
 40
3.0
 40
3.0
 40
3.0
 40
4.0
 40
4.0
 40
4.0
 40
5.0
 40
5.0
 40
5.0
 40
6.0
 40
6.0
 40
6.0
 40
7.0
 40
7.0
 40
7.0
 40
8.0
 40
8.0
 40
8.0
 40
8.0
 10
701.4753841884085
 20
-199.932150062763
 10
713.7763498848326
 20
-209.4452154793007
 10
723.9942143343615
 20
-220.8453591087346
 10
731.4979216036954
 20
-234.6186173531096
 10
737.9536032457036
 20
-246.4682855571764
 10
734.560392881267
 20
-257.5236609246849
 10
721.7449213213149
 20
-261.3191694465941
 10
714.1606362259699
 20
-263.5653277355395
 10
705.6192838910792
 20
-264.8346340508751
 10
697.8533903536954
 20
-263.8423140124496
 10
650.9400858835179
 20
-257.8477451464523
 10
611.509984503733
 20
-237.4169238892273
 10
581.5189998851092
 20
-200.3512010080422
 10
577.6319420028449
 20
-195.5471592435579
 10
574.8895723057685
 20
-189.1593880588653
 10
573.5635840120594
 20
-183.0805670591044
 10
570.984322745946
 20
-171.2564134536424
 10
579.2179068410587
 20
-163.2545933861484
 10
593.7429849799009
 20
-162.2996844812278
 10
597.0944675415813
 20
-162.0793801826912
 10
600.4728265082376
 20
-162.2672066840087
 10
603.8388007452595
 20
-162.2672066840087
 10
640.6262783210041
 20
-163.8575909693118
 10
672.7063766901265
 20
-177.683317300648
 10
701.4753841884085
 20
-199.932150062763
 97
        0
 97
        0
 92
        1
 93
        1
 72
     4
 94
        3
 73
     0
 74
     1
 95
       23
 96
       19
 40
0.0
 40
0.0
 40
0.0
 40
0.0
 40
1.0
 40
1.0
 40
1.0
 40
2.0
 40
2.0
 40
2.0
 40
3.0
 40
3.0
 40
3.0
 40
4.0
 40
4.0
 40
4.0
 40
5.0
 40
5.0
 40
5.0
 40
6.0
 40
6.0
 40
6.0
 40
6.0
 10
573.0442475900854
 20
-308.4053462424727
 10
571.8753038348259
 20
-295.2563092050768
 10
561.1407237982276
 20
-282.2452000280191
 10
550.1387672126948
 20
-280.5379573394339
 10
539.1632759207787
 20
-278.8347229865813
 10
524.0743071666257
 20
-282.9971227003261
 10
517.9860563001093
 20
-298.8233682846858
 10
512.7479837202663
 20
-312.4399931019698
 10
513.5285814097406
 20
-325.932462289381
 10
519.2174889816633
 20
-338.9137145041223
 10
526.7017712393681
 20
-355.9914858376178
 10
554.0411903819331
 20
-359.0762599063191
 10
565.0065066677562
 20
-344.2523038107975
 10
571.31963544666
 20
-335.7175806465411
 10
574.5963471302493
 20
-325.9931526034861
 10
573.0722031623736
 20
-313.1686365936748
 10
573.0722031623736
 20
-312.8880530923907
 10
573.2420435418135
 20
-310.6303836854431
 10
573.0442475900854
 20
-308.4053462424727
 97
        0
 97
        0
 92
        1
 93
        1
 72
     4
 94
        3
 73
     0
 74
     1
 95
       20
 96
       16
 40
0.0
 40
0.0
 40
0.0
 40
0.0
 40
1.0
 40
1.0
 40
1.0
 40
2.0
 40
2.0
 40
2.0
 40
3.0
 40
3.0
 40
3.0
 40
4.0
 40
4.0
 40
4.0
 40
5.0
 40
5.0
 40
5.0
 40
5.0
 10
378.0185697408215
 20
-376.1370728963302
 10
397.4964091776119
 20
-382.438536390473
 10
415.6390617040779
 20
-372.2764803076852
 10
414.5760819011348
 20
-350.0323753261782
 10
413.9658384803006
 20
-337.2630510160707
 10
408.0250224242563
 20
-326.7399363838285
 10
398.705590456957
 20
-318.8608844453756
 10
390.4395285646269
 20
-311.8724024844441
 10
380.8831422888252
 20
-306.0891962449641
 10
368.833879520841
 20
-310.4725683132001
 10
356.3834748460758
 20
-315.0019876910792
 10
349.4623123698848
 20
-323.14790228927
 10
350.4711282515182
 20
-335.7993918066222
 10
350.2988212039336
 20
-353.5218885260374
 10
362.2176075049283
 20
-371.0250573363883
 10
378.0185697408215
 20
-376.1370728963302
 97
        0
 97
        0
 92
        1
 93
        1
 72
     4
 94
        3
 73
     0
 74
     1
 95
       23
 96
       19
 40
0.0
 40
0.0
 40
0.0
 40
0.0
 40
1.0
 40
1.0
 40
1.0
 40
2.0
 40
2.0
 40
2.0
 40
3.0
 40
3.0
 40
3.0
 40
4.0
 40
4.0
 40
4.0
 40
5.0
 40
5.0
 40
5.0
 40
6.0
 40
6.0
 40
6.0
 40
6.0
 10
616.1846289685418
 20
-316.6282414422976
 10
614.5671113336612
 20
-309.4335871357325
 10
612.7921894378997
 20
-301.05806684455
 10
604.3078788038183
 20
-300.2723816520338
 10
599.0619437192727
 20
-299.7865508056702
 10
591.9178047207206
 20
-302.4074884856182
 10
588.2053663874249
 20
-306.1753240742964
 10
578.9277650007207
 20
-315.5912130437773
 10
579.5004945102119
 20
-334.0825907789822
 10
587.9322342794912
 20
-344.3159232933231
 10
591.5358822698872
 20
-348.6895828557454
 10
595.7645736899794
 20
-350.1649073499539
 10
601.2959228342588
 20
-347.6106210987909
 10
612.5060045443715
 20
-342.4338555000913
 10
615.667450881192
 20
-332.8851261733171
 10
616.0142233109837
 20
-321.6500180593357
 10
616.0921289131729
 20
-319.9713476100751
 10
616.5401375146721
 20
-318.2094784999026
 10
616.1846289685418
 20
-316.6282414422976
 97
        0
 97
        0
 92
        1
 93
        1
 72
     4
 94
        3
 73
     0
 74
     1
 95
       17
 96
       13
 40
0.0
 40
0.0
 40
0.0
 40
0.0
 40
1.0
 40
1.0
 40
1.0
 40
2.0
 40
2.0
 40
2.0
 40
3.0
 40
3.0
 40
3.0
 40
4.0
 40
4.0
 40
4.0
 40
4.0
 10
365.9309708387782
 20
-387.2440684336261
 10
363.0336121600376
 20
-375.7188184793058
 10
350.5409657933214
 20
-364.9154286792973
 10
339.1469117508641
 20
-364.0815920690693
 10
329.9192090051392
 20
-363.4063416648787
 10
322.59484906538
 20
-369.9537011395423
 10
323.2504689022644
 20
-378.2917589083008
 10
324.1835889052536
 20
-390.1577687888157
 10
339.7562815600641
 20
-404.9606040383624
 10
351.5322066644339
 20
-405.1753069446568
 10
364.145257269889
 20
-405.4052723600871
 10
368.9822907207881
 20
-399.3816173655678
 10
365.9309708387782
 20
-387.2440684336261
 97
        0
 97
        0
 92
        1
 93
        1
 72
     4
 94
        3
 73
     0
 74
     1
 95
       20
 96
       16
 40
0.0
 40
0.0
 40
0.0
 40
0.0
 40
1.0
 40
1.0
 40
1.0
 40
2.0
 40
2.0
 40
2.0
 40
3.0
 40
3.0
 40
3.0
 40
4.0
 40
4.0
 40
4.0
 40
5.0
 40
5.0
 40
5.0
 40
5.0
 10
645.631610483757
 20
-318.0185686634068
 10
641.1834883767624
 20
-316.8772721469177
 10
633.6154421800275
 20
-318.5888315047532
 10
630.9256433477494
 20
-321.8788015296141
 10
625.6643943651434
 20
-328.3141331594416
 10
621.8479448584803
 20
-336.4290602390838
 10
619.3175544549522
 20
-344.443521980812
 10
617.2367143205192
 20
-351.0343050925794
 10
621.3237264891359
 20
-355.9838288885903
 10
628.4149349004474
 20
-357.78994385858
 10
640.6012519171345
 20
-360.893783216472
 10
655.2667245844605
 20
-347.3723820672976
 10
655.5528067001469
 20
-331.6718851693186
 10
656.3951738710348
 20
-324.9729283816914
 10
651.7813224981728
 20
-319.5964654412346
 10
645.631610483757
 20
-318.0185686634068
 97
        0
 97
        0
 92
        1
 93
        1
 72
     4
 94
        3
 73
     0
 74
     1
 95
       20
 96
       16
 40
0.0
 40
0.0
 40
0.0
 40
0.0
 40
1.0
 40
1.0
 40
1.0
 40
2.0
 40
2.0
 40
2.0
 40
3.0
 40
3.0
 40
3.0
 40
4.0
 40
4.0
 40
4.0
 40
5.0
 40
5.0
 40
5.0
 40
5.0
 10
346.3570855111629
 20
-418.0307076951758
 10
341.833318914445
 20
-410.1687682669653
 10
324.5294363344929
 20
-402.6039081832496
 10
315.5199309415984
 20
-404.3808856357973
 10
305.4799749318972
 20
-406.3611062655618
 10
300.9396097141325
 20
-415.6311534810775
 10
305.6050555623233
 20
-424.6240602529251
 10
309.3892328274505
 20
-431.918203507932
 10
325.7739731905567
 20
-439.6388747960227
 10
333.6800043118255
 20
-437.8533153938952
 10
342.1155982500786
 20
-435.9481225868185
 10
348.1460365819903
 20
-429.9440981596053
 10
347.9629378612799
 20
-422.882746710613
 10
347.5872334697251
 20
-421.7022404484305
 10
347.3036694111006
 20
-419.675718402068
 10
346.3570855111629
 20
-418.0307076951758
 97
        0
 97
        0
 92
        1
 93
        1
 72
     4
 94
        3
 73
     0
 74
     1
 95
       23
 96
       19
 40
0.0
 40
0.0
 40
0.0
 40
0.0
 40
1.0
 40
1.0
 40
1.0
 40
2.0
 40
2.0
 40
2.0
 40
3.0
 40
3.0
 40
3.0
 40
4.0
 40
4.0
 40
4.0
 40
5.0
 40
5.0
 40
5.0
 40
6.0
 40
6.0
 40
6.0
 40
6.0
 10
327.0679461873233
 20
-465.7557515401313
 10
330.7464164447319
 20
-463.0542360341751
 10
335.886284799124
 20
-458.6226097703875
 10
335.6357638158343
 20
-455.2960508347387
 10
335.3635053195321
 20
-451.6816111712105
 10
329.896186769136
 20
-448.1284270999095
 10
326.1545595294792
 20
-445.2498767657598
 10
324.3838001362074
 20
-443.8875051169416
 10
321.3671163860408
 20
-443.834471751863
 10
318.895669073353
 20
-443.7499369790385
 10
310.7415322480183
 20
-443.471049312102
 10
301.1727612425811
 20
-450.094875499206
 10
300.9907930781037
 20
-455.906294255572
 10
300.7772721169613
 20
-462.7228802802783
 10
307.618113711741
 20
-468.5518226582462
 10
318.2371714569681
 20
-468.6633880028021
 10
319.8331057455925
 20
-468.1842377159956
 10
324.1387263784
 20
-467.9070458834067
 10
327.0679461873233
 20
-465.7557515401313
 97
        0
 97
        0
 92
        1
 93
        1
 72
     4
 94
        3
 73
     0
 74
     1
 95
       17
 96
       13
 40
0.0
 40
0.0
 40
0.0
 40
0.0
 40
1.0
 40
1.0
 40
1.0
 40
2.0
 40
2.0
 40
2.0
 40
3.0
 40
3.0
 40
3.0
 40
4.0
 40
4.0
 40
4.0
 40
4.0
 10
668.7163354128825
 20
-344.8678402903552
 10
660.3165595516257
 20
-347.2122541936715
 10
653.572945792821
 20
-352.3292030898992
 10
651.0343331621516
 20
-361.1120833471414
 10
649.5462642158709
 20
-366.2602767065164
 10
650.4942870055602
 20
-371.3517880875179
 10
656.3768794156422
 20
-373.580731088382
 10
665.5694835292452
 20
-377.0638206732838
 10
680.6464272762023
 20
-366.9908215882488
 10
681.1906873242042
 20
-357.1775421031207
 10
681.6649042747267
 20
-348.6276078186484
 10
676.1657245941497
 20
-342.7886959902689
 10
668.7163354128825
 20
-344.8678402903552
 97
        0
 97
        0
 92
        1
 93
        1
 72
     4
 94
        3
 73
     0
 74
     1
 95
       17
 96
       13
 40
0.0
 40
0.0
 40
0.0
 40
0.0
 40
1.0
 40
1.0
 40
1.0
 40
2.0
 40
2.0
 40
2.0
 40
3.0
 40
3.0
 40
3.0
 40
4.0
 40
4.0
 40
4.0
 40
4.0
 10
687.3018576488867
 20
-399.7874870529567
 10
693.8490629567896
 20
-400.0852344534042
 10
699.6589914344877
 20
-394.3541879673694
 10
700.1542778420662
 20
-387.1092752973864
 10
700.6042392225172
 20
-380.527588024398
 10
695.8838586192214
 20
-373.8088978916239
 10
690.4739928809904
 20
-373.3310837167264
 10
685.2445536396517
 20
-372.8692001069194
 10
676.4245191935042
 20
-382.3553891184802
 10
676.0786717642623
 20
-388.8136915953919
 10
675.7586729616087
 20
-394.7896062835562
 10
680.5563938889754
 20
-399.4806952026529
 10
687.3018576488867
 20
-399.7874870529567
 97
        0
 97
        0
 92
        1
 93
        1
 72
     4
 94
        3
 73
     0
 74
     1
 95
       17
 96
       13
 40
0.0
 40
0.0
 40
0.0
 40
0.0
 40
1.0
 40
1.0
 40
1.0
 40
2.0
 40
2.0
 40
2.0
 40
3.0
 40
3.0
 40
3.0
 40
4.0
 40
4.0
 40
4.0
 40
4.0
 10
333.2623665618366
 20
-490.4181676914122
 10
333.0976136854406
 20
-484.7413879045234
 10
326.902165532535
 20
-480.0124767405687
 10
319.2285664948404
 20
-479.7063529462175
 10
311.9066732232241
 20
-479.4143097158521
 10
307.4348094353527
 20
-483.0143604818732
 10
307.3103454719621
 20
-489.3012809117536
 10
307.1521189883624
 20
-497.2882495814702
 10
312.3097679089524
 20
-503.1108197334033
 10
319.7100292830337
 20
-503.2997254020338
 10
325.4576743901162
 20
-503.4464407676314
 10
333.4207986011143
 20
-495.8774695703432
 10
333.2623665618366
 20
-490.4181676914122
 97
        0
 97
        0
 75
     2
 76
     1
 98
        0
  0
ENDSEC
  0
SECTION
  2
OBJECTS
  0
DICTIONARY
  5
C
330
0
100
AcDbDictionary
281
     1
  3
ACAD_GROUP
350
D
  3
ACAD_LAYOUT
350
1A
  3
ACAD_MATERIAL
350
3B
  3
ACAD_MLEADERSTYLE
350
56
  3
ACAD_MLINESTYLE
350
17
  3
ACAD_PLOTSETTINGS
350
19
  3
ACAD_PLOTSTYLENAME
350
E
  3
ACAD_TABLESTYLE
350
55
  3
ACAD_VISUALSTYLE
350
2A
  0
SUN
  5
3F
330
29
100
AcDbSun
 90
        1
290
     0
 63
     7
421
 16777215
 40
1.0
291
     1
 91
  2455826
 92
 54000000
292
     0
 70
     2
 71
   256
280
     1
  0
DICTIONARY
  5
D
102
{ACAD_REACTORS
330
C
102
}
330
C
100
AcDbDictionary
281
     1
  0
DICTIONARY
  5
1A
102
{ACAD_REACTORS
330
C
102
}
330
C
100
AcDbDictionary
281
     1
  3
Layout1
350
1E
  3
Layout2
350
26
  3
Model
350
22
  0
DICTIONARY
  5
3B
102
{ACAD_REACTORS
330
C
102
}
330
C
100
AcDbDictionary
281
     1
  3
ByBlock
350
3D
  3
ByLayer
350
3C
  3
Global
350
3E
  0
DICTIONARY
  5
56
102
{ACAD_REACTORS
330
C
102
}
330
C
100
AcDbDictionary
281
     1
  0
DICTIONARY
  5
17
102
{ACAD_REACTORS
330
C
102
}
330
C
100
AcDbDictionary
281
     1
  3
Standard
350
18
  0
DICTIONARY
  5
19
102
{ACAD_REACTORS
330
C
102
}
330
C
100
AcDbDictionary
281
     1
  0
ACDBDICTIONARYWDFLT
  5
E
102
{ACAD_REACTORS
330
C
102
}
330
C
100
AcDbDictionary
281
     1
  3
Normal
350
F
100
AcDbDictionaryWithDefault
340
F
  0
DICTIONARY
  5
55
102
{ACAD_REACTORS
330
C
102
}
330
C
100
AcDbDictionary
281
     1
  0
DICTIONARY
  5
2A
102
{ACAD_REACTORS
330
C
102
}
330
C
100
AcDbDictionary
281
     1
  3
2dWireframe
350
2F
  3
3D Hidden
350
31
  3
3dWireframe
350
30
  3
Basic
350
32
  3
Brighten
350
36
  3
ColorChange
350
3A
  3
Conceptual
350
34
  3
Dim
350
35
  3
Facepattern
350
39
  3
Flat
350
2B
  3
FlatWithEdges
350
2C
  3
Gouraud
350
2D
  3
GouraudWithEdges
350
2E
  3
Linepattern
350
38
  3
Realistic
350
33
  3
Thicken
350
37
  0
LAYOUT
  5
1E
102
{ACAD_REACTORS
330
1A
102
}
330
1A
100
AcDbPlotSettings
  1

  2
none_device
  4

  6

 40
0.0
 41
0.0
 42
0.0
 43
0.0
 44
0.0
 45
0.0
 46
0.0
 47
0.0
 48
0.0
 49
0.0
140
0.0
141
0.0
142
1.0
143
1.0
 70
   688
 72
     0
 73
     0
 74
     5
  7

 75
    16
 76
     0
 77
     2
 78
   300
147
1.0
148
0.0
149
0.0
100
AcDbLayout
  1
Layout1
 70
     1
 71
     1
 10
0.0
 20
0.0
 11
12.0
 21
9.0
 12
0.0
 22
0.0
 32
0.0
 14
1.000000000000000E+20
 24
1.000000000000000E+20
 34
1.000000000000000E+20
 15
-1.000000000000000E+20
 25
-1.000000000000000E+20
 35
-1.000000000000000E+20
146
0.0
 13
0.0
 23
0.0
 33
0.0
 16
1.0
 26
0.0
 36
0.0
 17
0.0
 27
1.0
 37
0.0
 76
     0
330
1B
  0
LAYOUT
  5
26
102
{ACAD_REACTORS
330
1A
102
}
330
1A
100
AcDbPlotSettings
  1

  2
none_device
  4

  6

 40
0.0
 41
0.0
 42
0.0
 43
0.0
 44
0.0
 45
0.0
 46
0.0
 47
0.0
 48
0.0
 49
0.0
140
0.0
141
0.0
142
1.0
143
1.0
 70
   688
 72
     0
 73
     0
 74
     5
  7

 75
    16
 76
     0
 77
     2
 78
   300
147
1.0
148
0.0
149
0.0
100
AcDbLayout
  1
Layout2
 70
     1
 71
     2
 10
0.0
 20
0.0
 11
0.0
 21
0.0
 12
0.0
 22
0.0
 32
0.0
 14
0.0
 24
0.0
 34
0.0
 15
0.0
 25
0.0
 35
0.0
146
0.0
 13
0.0
 23
0.0
 33
0.0
 16
1.0
 26
0.0
 36
0.0
 17
0.0
 27
1.0
 37
0.0
 76
     0
330
23
  0
LAYOUT
  5
22
102
{ACAD_REACTORS
330
1A
102
}
330
1A
100
AcDbPlotSettings
  1

  2
none_device
  4

  6

 40
0.0
 41
0.0
 42
0.0
 43
0.0
 44
0.0
 45
0.0
 46
0.0
 47
0.0
 48
0.0
 49
0.0
140
0.0
141
0.0
142
1.0
143
1.0
 70
  1712
 72
     0
 73
     0
 74
     0
  7

 75
     0
 76
     0
 77
     2
 78
   300
147
1.0
148
0.0
149
0.0
100
AcDbLayout
  1
Model
 70
     1
 71
     0
 10
0.0
 20
0.0
 11
12.0
 21
9.0
 12
0.0
 22
0.0
 32
0.0
 14
1.000000000000000E+20
 24
1.000000000000000E+20
 34
1.000000000000000E+20
 15
-1.000000000000000E+20
 25
-1.000000000000000E+20
 35
-1.000000000000000E+20
146
0.0
 13
0.0
 23
0.0
 33
0.0
 16
1.0
 26
0.0
 36
0.0
 17
0.0
 27
1.0
 37
0.0
 76
     0
330
1F
331
29
  0
MATERIAL
  5
3D
102
{ACAD_REACTORS
330
3B
102
}
330
3B
100
AcDbMaterial
  1
ByBlock
 72
     1
 94
      127
  0
MATERIAL
  5
3C
102
{ACAD_REACTORS
330
3B
102
}
330
3B
100
AcDbMaterial
  1
ByLayer
 72
     1
 94
      127
  0
MATERIAL
  5
3E
102
{ACAD_REACTORS
330
3B
102
}
330
3B
100
AcDbMaterial
  1
Global
 72
     1
 94
      127
  0
MLINESTYLE
  5
18
102
{ACAD_REACTORS
330
17
102
}
330
17
100
AcDbMlineStyle
  2
Standard
 70
     0
  3

 62
   256
 51
90.0
 52
90.0
 71
     2
 49
0.5
 62
   256
  6
BYLAYER
 49
-0.5
 62
   256
  6
BYLAYER
  0
ACDBPLACEHOLDER
  5
F
102
{ACAD_REACTORS
330
E
102
}
330
E
  0
VISUALSTYLE
  5
2F
102
{ACAD_REACTORS
330
2A
102
}
330
2A
100
AcDbVisualStyle
  2
2dWireframe
 70
     4
177
     2
291
     0
 71
     0
176
     1
 72
     2
176
     1
 73
     0
176
     1
 90
        0
176
     1
 40
-0.6
176
     1
 41
-30.0
176
     1
 62
     5
 63
     7
421
 16777215
176
     1
 74
     1
176
     1
 91
        4
176
     1
 64
     7
176
     1
 65
   257
176
     1
 75
     1
176
     1
175
     1
176
     1
 42
1.0
176
     1
 92
        0
176
     1
 66
   257
176
     1
 43
1.0
176
     1
 76
     1
176
     1
 77
     6
176
     1
 78
     2
176
     1
 67
     7
176
     1
 79
     5
176
     1
170
     0
176
     1
171
     0
176
     1
290
     0
176
     1
 93
        1
176
     1
 44
0.0
176
     1
173
     0
176
     1
  0
VISUALSTYLE
  5
31
102
{ACAD_REACTORS
330
2A
102
}
330
2A
100
AcDbVisualStyle
  2
3D Hidden
 70
     6
177
     2
291
     0
 71
     1
176
     1
 72
     2
176
     1
 73
     2
176
     1
 90
        0
176
     1
 40
-0.6
176
     1
 41
-30.0
176
     1
 62
     5
 63
     7
421
 16777215
176
     1
 74
     2
176
     1
 91
        2
176
     1
 64
     7
176
     1
 65
   257
176
     1
 75
     2
176
     1
175
     1
176
     1
 42
40.0
176
     1
 92
        0
176
     1
 66
   257
176
     1
 43
1.0
176
     1
 76
     1
176
     1
 77
     6
176
     1
 78
     2
176
     1
 67
     7
176
     1
 79
     3
176
     1
170
     0
176
     1
171
     0
176
     1
290
     0
176
     1
 93
        1
176
     1
 44
0.0
176
     1
173
     0
176
     1
  0
VISUALSTYLE
  5
30
102
{ACAD_REACTORS
330
2A
102
}
330
2A
100
AcDbVisualStyle
  2
3dWireframe
 70
     5
177
     2
291
     0
 71
     0
176
     1
 72
     2
176
     1
 73
     0
176
     1
 90
        0
176
     1
 40
-0.6
176
     1
 41
-30.0
176
     1
 62
     5
 63
     7
421
 16777215
176
     1
 74
     1
176
     1
 91
        4
176
     1
 64
     7
176
     1
 65
   257
176
     1
 75
     1
176
     1
175
     1
176
     1
 42
1.0
176
     1
 92
        0
176
     1
 66
   257
176
     1
 43
1.0
176
     1
 76
     1
176
     1
 77
     6
176
     1
 78
     2
176
     1
 67
     7
176
     1
 79
     5
176
     1
170
     0
176
     1
171
     0
176
     1
290
     0
176
     1
 93
        1
176
     1
 44
0.0
176
     1
173
     0
176
     1
  0
VISUALSTYLE
  5
32
102
{ACAD_REACTORS
330
2A
102
}
330
2A
100
AcDbVisualStyle
  2
Basic
 70
     7
177
     2
291
     1
 71
     1
176
     1
 72
     0
176
     1
 73
     1
176
     1
 90
        0
176
     1
 40
-0.6
176
     1
 41
-30.0
176
     1
 62
     5
 63
     7
421
 16777215
176
     1
 74
     0
176
     1
 91
        4
176
     1
 64
     7
176
     1
 65
   257
176
     1
 75
     1
176
     1
175
     1
176
     1
 42
1.0
176
     1
 92
        8
176
     1
 66
     7
176
     1
 43
1.0
176
     1
 76
     1
176
     1
 77
     6
176
     1
 78
     2
176
     1
 67
     7
176
     1
 79
     5
176
     1
170
     0
176
     1
171
     0
176
     1
290
     0
176
     1
 93
        1
176
     1
 44
0.0
176
     1
173
     0
176
     1
  0
VISUALSTYLE
  5
36
102
{ACAD_REACTORS
330
2A
102
}
330
2A
100
AcDbVisualStyle
  2
Brighten
 70
    12
177
     2
291
     1
 71
     2
176
     1
 72
     2
176
     1
 73
     0
176
     1
 90
        0
176
     1
 40
-0.6
176
     1
 41
-30.0
176
     1
 62
     5
 63
     7
421
 16777215
176
     1
 74
     1
176
     1
 91
        4
176
     1
 64
     7
176
     1
 65
   257
176
     1
 75
     1
176
     1
175
     1
176
     1
 42
1.0
176
     1
 92
        8
176
     1
 66
     7
176
     1
 43
1.0
176
     1
 76
     1
176
     1
 77
     6
176
     1
 78
     2
176
     1
 67
     7
176
     1
 79
     5
176
     1
170
     0
176
     1
171
     0
176
     1
290
     0
176
     1
 93
        1
176
     1
 44
50.0
176
     1
173
     0
176
     1
  0
VISUALSTYLE
  5
3A
102
{ACAD_REACTORS
330
2A
102
}
330
2A
100
AcDbVisualStyle
  2
ColorChange
 70
    16
177
     2
291
     1
 71
     2
176
     1
 72
     2
176
     1
 73
     3
176
     1
 90
        0
176
     1
 40
-0.6
176
     1
 41
-30.0
176
     1
 62
     5
 63
     8
421
  8421504
176
     1
 74
     1
176
     1
 91
        4
176
     1
 64
     7
176
     1
 65
   257
176
     1
 75
     1
176
     1
175
     1
176
     1
 42
1.0
176
     1
 92
        8
176
     1
 66
     8
424
  8421504
176
     1
 43
1.0
176
     1
 76
     1
176
     1
 77
     6
176
     1
 78
     2
176
     1
 67
     7
176
     1
 79
     5
176
     1
170
     0
176
     1
171
     0
176
     1
290
     0
176
     1
 93
        1
176
     1
 44
0.0
176
     1
173
     0
176
     1
  0
VISUALSTYLE
  5
34
102
{ACAD_REACTORS
330
2A
102
}
330
2A
100
AcDbVisualStyle
  2
Conceptual
 70
     9
177
     2
291
     0
 71
     3
176
     1
 72
     2
176
     1
 73
     0
176
     1
 90
        0
176
     1
 40
-0.6
176
     1
 41
-30.0
176
     1
 62
     5
 63
     7
421
 16777215
176
     1
 74
     2
176
     1
 91
        2
176
     1
 64
     7
176
     1
 65
   257
176
     1
 75
     1
176
     1
175
     1
176
     1
 42
40.0
176
     1
 92
        8
176
     1
 66
     7
176
     1
 43
1.0
176
     1
 76
     1
176
     1
 77
     6
176
     1
 78
     2
176
     1
 67
     7
176
     1
 79
     3
176
     1
170
     0
176
     1
171
     0
176
     1
290
     0
176
     1
 93
        1
176
     1
 44
0.0
176
     1
173
     0
176
     1
  0
VISUALSTYLE
  5
35
102
{ACAD_REACTORS
330
2A
102
}
330
2A
100
AcDbVisualStyle
  2
Dim
 70
    11
177
     2
291
     1
 71
     2
176
     1
 72
     2
176
     1
 73
     0
176
     1
 90
        0
176
     1
 40
-0.6
176
     1
 41
-30.0
176
     1
 62
     5
 63
     7
421
 16777215
176
     1
 74
     1
176
     1
 91
        4
176
     1
 64
     7
176
     1
 65
   257
176
     1
 75
     1
176
     1
175
     1
176
     1
 42
1.0
176
     1
 92
        8
176
     1
 66
     7
176
     1
 43
1.0
176
     1
 76
     1
176
     1
 77
     6
176
     1
 78
     2
176
     1
 67
     7
176
     1
 79
     5
176
     1
170
     0
176
     1
171
     0
176
     1
290
     0
176
     1
 93
        1
176
     1
 44
-50.0
176
     1
173
     0
176
     1
  0
VISUALSTYLE
  5
39
102
{ACAD_REACTORS
330
2A
102
}
330
2A
100
AcDbVisualStyle
  2
Facepattern
 70
    15
177
     2
291
     1
 71
     2
176
     1
 72
     2
176
     1
 73
     0
176
     1
 90
        0
176
     1
 40
-0.6
176
     1
 41
-30.0
176
     1
 62
     5
 63
     7
421
 16777215
176
     1
 74
     1
176
     1
 91
        4
176
     1
 64
     7
176
     1
 65
   257
176
     1
 75
     1
176
     1
175
     1
176
     1
 42
1.0
176
     1
 92
        8
176
     1
 66
     7
176
     1
 43
1.0
176
     1
 76
     1
176
     1
 77
     6
176
     1
 78
     2
176
     1
 67
     7
176
     1
 79
     5
176
     1
170
     0
176
     1
171
     0
176
     1
290
     0
176
     1
 93
        1
176
     1
 44
0.0
176
     1
173
     0
176
     1
  0
VISUALSTYLE
  5
2B
102
{ACAD_REACTORS
330
2A
102
}
330
2A
100
AcDbVisualStyle
  2
Flat
 70
     0
177
     2
291
     1
 71
     2
176
     1
 72
     1
176
     1
 73
     1
176
     1
 90
        2
176
     1
 40
-0.6
176
     1
 41
30.0
176
     1
 62
     5
 63
     7
421
 16777215
176
     1
 74
     0
176
     1
 91
        4
176
     1
 64
     7
176
     1
 65
   257
176
     1
 75
     1
176
     1
175
     1
176
     1
 42
1.0
176
     1
 92
        8
176
     1
 66
     7
176
     1
 43
1.0
176
     1
 76
     1
176
     1
 77
     6
176
     1
 78
     2
176
     1
 67
     7
176
     1
 79
     5
176
     1
170
     0
176
     1
171
     0
176
     1
290
     0
176
     1
 93
       13
176
     1
 44
0.0
176
     1
173
     0
176
     1
  0
VISUALSTYLE
  5
2C
102
{ACAD_REACTORS
330
2A
102
}
330
2A
100
AcDbVisualStyle
  2
FlatWithEdges
 70
     1
177
     2
291
     1
 71
     2
176
     1
 72
     1
176
     1
 73
     1
176
     1
 90
        2
176
     1
 40
-0.6
176
     1
 41
30.0
176
     1
 62
     5
 63
     7
421
 16777215
176
     1
 74
     1
176
     1
 91
        4
176
     1
 64
     7
176
     1
 65
   257
176
     1
 75
     1
176
     1
175
     1
176
     1
 42
1.0
176
     1
 92
        0
176
     1
 66
   257
176
     1
 43
1.0
176
     1
 76
     1
176
     1
 77
     6
176
     1
 78
     2
176
     1
 67
     7
176
     1
 79
     5
176
     1
170
     0
176
     1
171
     0
176
     1
290
     0
176
     1
 93
       13
176
     1
 44
0.0
176
     1
173
     0
176
     1
  0
VISUALSTYLE
  5
2D
102
{ACAD_REACTORS
330
2A
102
}
330
2A
100
AcDbVisualStyle
  2
Gouraud
 70
     2
177
     2
291
     1
 71
     2
176
     1
 72
     2
176
     1
 73
     1
176
     1
 90
        2
176
     1
 40
-0.6
176
     1
 41
30.0
176
     1
 62
     5
 63
     7
421
 16777215
176
     1
 74
     0
176
     1
 91
        4
176
     1
 64
     7
176
     1
 65
   257
176
     1
 75
     1
176
     1
175
     1
176
     1
 42
1.0
176
     1
 92
        0
176
     1
 66
     7
176
     1
 43
1.0
176
     1
 76
     1
176
     1
 77
     6
176
     1
 78
     2
176
     1
 67
     7
176
     1
 79
     5
176
     1
170
     0
176
     1
171
     0
176
     1
290
     0
176
     1
 93
       13
176
     1
 44
0.0
176
     1
173
     0
176
     1
  0
VISUALSTYLE
  5
2E
102
{ACAD_REACTORS
330
2A
102
}
330
2A
100
AcDbVisualStyle
  2
GouraudWithEdges
 70
     3
177
     2
291
     1
 71
     2
176
     1
 72
     2
176
     1
 73
     1
176
     1
 90
        2
176
     1
 40
-0.6
176
     1
 41
30.0
176
     1
 62
     5
 63
     7
421
 16777215
176
     1
 74
     1
176
     1
 91
        4
176
     1
 64
     7
176
     1
 65
   257
176
     1
 75
     1
176
     1
175
     1
176
     1
 42
1.0
176
     1
 92
        0
176
     1
 66
   257
176
     1
 43
1.0
176
     1
 76
     1
176
     1
 77
     6
176
     1
 78
     2
176
     1
 67
     7
176
     1
 79
     5
176
     1
170
     0
176
     1
171
     0
176
     1
290
     0
176
     1
 93
       13
176
     1
 44
0.0
176
     1
173
     0
176
     1
  0
VISUALSTYLE
  5
38
102
{ACAD_REACTORS
330
2A
102
}
330
2A
100
AcDbVisualStyle
  2
Linepattern
 70
    14
177
     2
291
     1
 71
     2
176
     1
 72
     2
176
     1
 73
     0
176
     1
 90
        0
176
     1
 40
-0.6
176
     1
 41
-30.0
176
     1
 62
     5
 63
     7
421
 16777215
176
     1
 74
     1
176
     1
 91
        4
176
     1
 64
     7
176
     1
 65
   257
176
     1
 75
     7
176
     1
175
     7
176
     1
 42
1.0
176
     1
 92
        8
176
     1
 66
     7
176
     1
 43
1.0
176
     1
 76
     1
176
     1
 77
     6
176
     1
 78
     2
176
     1
 67
     7
176
     1
 79
     5
176
     1
170
     0
176
     1
171
     0
176
     1
290
     0
176
     1
 93
        1
176
     1
 44
0.0
176
     1
173
     0
176
     1
  0
VISUALSTYLE
  5
33
102
{ACAD_REACTORS
330
2A
102
}
330
2A
100
AcDbVisualStyle
  2
Realistic
 70
     8
177
     2
291
     0
 71
     2
176
     1
 72
     2
176
     1
 73
     0
176
     1
 90
        0
176
     1
 40
-0.6
176
     1
 41
-30.0
176
     1
 62
     5
 63
     7
421
 16777215
176
     1
 74
     1
176
     1
 91
        0
176
     1
 64
     7
176
     1
 65
   257
176
     1
 75
     1
176
     1
175
     1
176
     1
 42
1.0
176
     1
 92
        8
176
     1
 66
     8
424
  7895160
176
     1
 43
1.0
176
     1
 76
     1
176
     1
 77
     6
176
     1
 78
     2
176
     1
 67
     7
176
     1
 79
     5
176
     1
170
     0
176
     1
171
     0
176
     1
290
     0
176
     1
 93
       13
176
     1
 44
0.0
176
     1
173
     0
176
     1
  0
VISUALSTYLE
  5
37
102
{ACAD_REACTORS
330
2A
102
}
330
2A
100
AcDbVisualStyle
  2
Thicken
 70
    13
177
     2
291
     1
 71
     2
176
     1
 72
     2
176
     1
 73
     0
176
     1
 90
        0
176
     1
 40
-0.6
176
     1
 41
-30.0
176
     1
 62
     5
 63
     7
421
 16777215
176
     1
 74
     1
176
     1
 91
        4
176
     1
 64
     7
176
     1
 65
   257
176
     1
 75
     1
176
     1
175
     1
176
     1
 42
1.0
176
     1
 92
       12
176
     1
 66
     7
176
     1
 43
1.0
176
     1
 76
     1
176
     1
 77
     6
176
     1
 78
     2
176
     1
 67
     7
176
     1
 79
     5
176
     1
170
     0
176
     1
171
     0
176
     1
290
     0
176
     1
 93
        1
176
     1
 44
0.0
176
     1
173
     0
176
     1
  0
ENDSEC
  0
EOF
