<?xml version="1.0" encoding="utf-8"?>
<!-- Generator: Adobe Illustrator 24.2.1, SVG Export Plug-In . SVG Version: 6.00 Build 0)  -->
<svg version="1.1" id="Layer_1" xmlns="http://www.w3.org/2000/svg" xmlns:xlink="http://www.w3.org/1999/xlink" x="0px" y="0px"
	 viewBox="0 0 1000 800" style="enable-background:new 0 0 1000 800;" xml:space="preserve">
<path d="M793.7,566.8c1.6,23.5-13.5,30.8-32.8,34.8c-24.2,5-54.6-6.4-68.2-26.6c-1.6-2.4-2.5-5.3-3.7-8c0.5-0.6,1.1-1.2,1.6-1.8
	c4.1,2.4,8.2,4.9,12.3,7.3c19.4,11.4,40,18,62.4,12.1c6.7-1.8,13-7.1,18-12.3c4.2-4.3,2.9-9.1-4.2-11c-14.4-3.9-24-13.7-30.5-26.8
	c-1.6-3.3-2.1-7.3-2.3-12.1c23.1,25.7,50.5,30.3,81.1,18.1c8.4-3.3,14.4-12.6,15.5-21.2c-21,0.2-42.4,0.6-58.6-16
	c-2.5-2.5-3.4-6.5-4.4-10.7c28,20.5,55.2,14.7,82-0.6c15-8.6,26-22.3,26.9-38.8c-26.7,19.3-55.6,22.6-85.9,17
	c-0.2-0.9-0.4-1.8-0.6-2.8c6.1-1.2,12.2-2.7,18.4-3.6c38.4-5.4,66.4-26.6,88-57.4c6.4-9.1,8.8-19.8,7.4-32.6
	c-23.4,24.1-48.6,43.6-83.6,45.1c23.9-12.9,45.8-28.2,62.7-49.5c17-21.4,29-44.9,27.1-75.9c-10.7,18.9-20.5,35.5-36.4,47.6
	c-15.3,11.7-30.8,22.6-49.7,27.2c-0.4-0.7-0.8-1.4-1.2-2c10.7-8.7,21.9-16.9,32.1-26.2c20.5-18.8,37.4-40.6,44.5-67.8
	c6.7-25.6,2-50.9-7-75.4c-0.9,0-1.7,0-2.6,0c0,6.4,0.1,12.7,0,19.1c-0.5,26.9-10.7,50.7-24.5,73.1c-22,35.7-50.7,64.7-87.7,84.7
	c-19.9,10.8-40.8,19.7-60.8,30.1c-12.8,6.7-25,14.8-37.4,22.2c-7.8,4.6-11.5,11.1-9.2,20.3c3.2,12.5-1.2,24.1-5.9,34.8
	c-8.6,19.3-14.8,38.5-14.8,60.3c0,17.6-5.2,35-14.3,50.8c-15.5,26.8-48.3,27-66.8,16.8c-24.3-13.3-32.1-38.4-26-67.2
	c2.8-13.3,7.3-27.5,5.1-40.2c-2.2-12.7-10.7-24.9-18.4-36c-10.5-15.2-19.4-30.7-21.2-49.4c-0.6-5.8-0.6-11.7-0.1-17.5
	c1.5-18.4,13.2-28.6,29-35.6c41-18.2,85.8,0,109.2,26.5c7.1,8.1,13.2,17.1,20.2,26.3c26.4-25.6,61.7-37.5,93.3-55.8
	c33.2-19.3,62.3-42.8,85.4-74.2c19.4-26.4,32.5-54.6,38.2-86.6c0.6-3.6,0.5-7.3,0.8-10.9c0.3-3.5,0.7-7,1-10.5
	c0.9-0.3,1.7-0.7,2.6-1c5.4,8.1,11.3,16,15.9,24.5c10.4,19.2,16.9,39.6,13.3,61.9c-2.4,14.7,1.5,28.9,4.4,43
	c4.1,19.9-1.6,37.5-9,55.3c-1.5,3.7-1.7,8.5-1,12.6c2.8,17.8,3.2,35.4-6.4,51.4c-3.5,5.8-8.8,10.7-13.7,15.5
	c-4.6,4.5-7.2,8.5-5.8,16c3.8,19.8-3.5,35.6-20.2,46.9c-5.6,3.7-11.6,6.8-17.1,10.6c-2.4,1.6-5.3,4.1-5.7,6.6
	c-4.3,31-26.7,42.1-53.2,45.1C799,566.4,796.8,566.5,793.7,566.8z M544.9,548c-6.2-14.8-17.9-25.5-30.9-33.4
	c-19.6-11.9-30.2-27.8-32.1-50.7c-1.6-18.8-1.7-38.3-13-54.8c-11.3-16.5-23.6-31.8-46.6-29.9c-16.1,1.3-30.7,7.8-42.5,18.1
	c-27.6,24.1-40.9,54.9-35.8,91.8c4.2,30.4,18.1,54.5,47.9,67.5c17.2,7.5,33,16.9,45.5,31.9c11.8,14.1,27.9,23.3,44.9,30.3
	c32.8,13.7,67.8-15.8,68-53.3C548.5,559.6,547.2,553.6,544.9,548z M439.7,678.1c-11.5,18.2-25.1,33.8-48,37.6
	c-8.4,1.4-16.2,1.1-21.3-7.7c12.3-16.4,20.9-33.6,10-54.5c-4.5,19.1-13.1,35.2-29.6,46.3c-18.6,12.5-39.3,13.6-52.7,2
	c3.6-2.8,7.3-5.2,10.5-8.2c8.3-7.8,17.1-15.3,24.4-24c6.9-8.2,7-17.6,2.5-24.7c-14.2,30.4-38.7,43.6-71.4,42.7
	c-14.4-0.4-27.3-4.8-37.8-14.6c15.3-4.3,29.7-7.4,43.5-12.4c18.9-6.8,32.3-17.9,34.3-25.7c-4.3,2-8.7,4.2-13.3,6
	c-36.7,14.6-73.4,16.4-109.9-0.8c-10-4.7-18-11.3-21.9-23.3c32.6,9.6,63.5,10.9,93-6.6c-26.4,1.4-52.6,0.3-77.9-7.5
	c-25.9-8-47.6-22.3-63-47.3c13.5,5.1,25.1,10.7,37.4,13.9c12.6,3.2,25.8,5.1,38.9,5.8c18.3,0.9,30.2-2.1,36.9-7.3
	c-9.1-1-17.6-2.1-26.2-3c-33.2-3.4-64-12.4-89.5-35.5c-20.2-18.2-31.2-40.8-35.6-67.8c1.3,0.8,2.2,1.1,2.6,1.7
	c17.6,24.7,39.1,44.8,66,59.5c31.6,17.3,65.5,27,101.2,26.7c32.9-0.3,65.8-4.6,98.6-7.2c6.8-0.5,13.7-1.3,21.9-2
	c-3-4.4-5.8-7.3-7.2-10.7c-2.6-6.3-7-7.7-13.2-7.1c-11.2,1.1-22.3,1.8-33.5,2.6c-25.4,2-50.5,5.5-76.2,2.8c-28-3-55.2-8.6-81.1-19.7
	c-31.8-13.7-59.7-32.7-80.1-61.5c-0.9-1.3-2.8-2-5.4-3.7c-1.5,19.3-3.5,37.4,4.3,54.1c7.5,16.1,16.9,31.4,25.4,47
	c1.2,2.2,2.9,4.3,3.4,6.6c4.8,21.8,16.6,39.2,34.7,51.8c9,6.3,15.6,13.1,19.8,24c9,23.2,27.9,36.2,51.5,43c3.8,1.1,8.7,3.7,10.2,7
	c10.7,24,41.9,33.9,63.7,31.1c2.9-0.4,6.4,1.3,9.2,2.8c9,4.8,17.4,11.6,26.9,14.5c16.7,5,32.6,0.3,47.4-9c1.6,1.5,3,2.8,4.4,4.1
	c7.8,7.4,15.5,13.8,28,11.8c24.9-4,52.8-29.1,57.4-54.1c1.1-5.8,4.1-12.4-2.3-19.6C446.5,665.5,443.5,672,439.7,678.1z M581,143.7
	c-12.3,3.1-22.1,9.2-27,22.5c-5.6,15.1-2,28.1,5.4,40.7c12.6,21.5,30.8,37.3,52.5,49.3c28,15.5,56,31,89.1,32.3
	c15.3,0.6,30.5-1.3,43.3-10.4c16.6-11.8,19.8-33.1,8.9-54.4c-10.1-19.8-26-34.1-44.2-46.2c-31.5-20.9-64.8-36.6-103.9-36.5
	C597.1,141.9,588.8,141.8,581,143.7z M701.5,199.9c12.3,9.5,22.5,20.9,30,34.7c6.5,11.8,3.1,22.9-9.8,26.7
	c-7.6,2.2-16.1,3.5-23.9,2.5c-46.9-6-86.3-26.4-116.3-63.5c-3.9-4.8-6.6-11.2-8-17.3c-2.6-11.8,5.7-19.8,20.2-20.8
	c3.4-0.2,6.7,0,10.1,0C640.6,163.9,672.7,177.7,701.5,199.9z M573,308.4c-1.2-13.1-11.9-26.2-22.9-27.9c-11-1.7-26.1,2.5-32.2,18.3
	c-5.2,13.6-4.5,27.1,1.2,40.1c7.5,17.1,34.8,20.2,45.8,5.3c6.3-8.5,9.6-18.3,8.1-31.1C573.1,312.9,573.2,310.6,573,308.4z
	 M378,376.1c19.5,6.3,37.6-3.9,36.6-26.1c-0.6-12.8-6.6-23.3-15.9-31.2c-8.3-7-17.8-12.8-29.9-8.4c-12.5,4.5-19.4,12.7-18.4,25.3
	C350.3,353.5,362.2,371,378,376.1z M616.2,316.6c-1.6-7.2-3.4-15.6-11.9-16.4c-5.2-0.5-12.4,2.1-16.1,5.9
	c-9.3,9.4-8.7,27.9-0.3,38.1c3.6,4.4,7.8,5.8,13.4,3.3c11.2-5.2,14.4-14.7,14.7-26C616.1,320,616.5,318.2,616.2,316.6z M365.9,387.2
	c-2.9-11.5-15.4-22.3-26.8-23.2c-9.2-0.7-16.6,5.9-15.9,14.2c0.9,11.9,16.5,26.7,28.3,26.9C364.1,405.4,369,399.4,365.9,387.2z
	 M645.6,318c-4.4-1.1-12,0.6-14.7,3.9c-5.3,6.4-9.1,14.6-11.6,22.6c-2.1,6.6,2,11.5,9.1,13.3c12.2,3.1,26.9-10.4,27.1-26.1
	C656.4,325,651.8,319.6,645.6,318z M346.4,418c-4.5-7.9-21.8-15.4-30.8-13.6c-10,2-14.6,11.3-9.9,20.2c3.8,7.3,20.2,15,28.1,13.2
	c8.4-1.9,14.5-7.9,14.3-15C347.6,421.7,347.3,419.7,346.4,418z M327.1,465.8c3.7-2.7,8.8-7.1,8.6-10.5c-0.3-3.6-5.7-7.2-9.5-10
	c-1.8-1.4-4.8-1.4-7.3-1.5c-8.2-0.3-17.7,6.3-17.9,12.2c-0.2,6.8,6.6,12.6,17.2,12.8C319.8,468.2,324.1,467.9,327.1,465.8z
	 M668.7,344.9c-8.4,2.3-15.1,7.5-17.7,16.2c-1.5,5.1-0.5,10.2,5.3,12.5c9.2,3.5,24.3-6.6,24.8-16.4
	C681.7,348.6,676.2,342.8,668.7,344.9z M687.3,399.8c6.5,0.3,12.4-5.4,12.9-12.7c0.4-6.6-4.3-13.3-9.7-13.8c-5.2-0.5-14,9-14.4,15.5
	C675.8,394.8,680.6,399.5,687.3,399.8z M333.3,490.4c-0.2-5.7-6.4-10.4-14-10.7c-7.3-0.3-11.8,3.3-11.9,9.6c-0.2,8,5,13.8,12.4,14
	C325.5,503.4,333.4,495.9,333.3,490.4z"/>
</svg>
